{"version": {"openshot-qt": "2.4.1", "libopenshot": "0.1.9"}, "export_path": "", "clips": [{"crop_y": {"Points": [{"co": {"X": 1.0, "Y": 0.0}, "interpolation": 2}]}, "reader": {"pixel_format": 0, "audio_timebase": {"den": 48000, "num": 1}, "has_audio": true, "channel_layout": 3, "height": 720, "type": "FFmpegReader", "path": "..\\..\\..\\Downloads\\VID_20171128_201205317.mp4", "display_ratio": {"den": 9, "num": 16}, "interlaced_frame": false, "fps": {"den": 51651, "num": 1550000}, "has_video": true, "has_single_image": false, "audio_bit_rate": 128370, "pixel_ratio": {"den": 1, "num": 1}, "video_stream_index": 0, "channels": 2, "video_length": "310", "video_bit_rate": 10532809, "vcodec": "h264", "acodec": "aac", "audio_stream_index": 1, "video_timebase": {"den": 90000, "num": 1}, "file_size": "13579425", "top_field_first": true, "sample_rate": 48000, "width": 1280, "duration": 10.23999977111816}, "scale": 1, "channel_mapping": {"Points": [{"co": {"X": 1.0, "Y": -1.0}, "interpolation": 2}]}, "perspective_c2_y": {"Points": [{"co": {"X": 1.0, "Y": -1.0}, "interpolation": 2}]}, "alpha": {"Points": [{"co": {"X": 1.0, "Y": 1.0}, "interpolation": 2}]}, "position": 0, "shear_y": {"Points": [{"co": {"X": 1.0, "Y": 0.0}, "interpolation": 2}]}, "end": 1.9660703225806453, "channel_filter": {"Points": [{"co": {"X": 1.0, "Y": -1.0}, "interpolation": 2}]}, "gravity": 4, "has_video": {"Points": [{"co": {"X": 1.0, "Y": -1.0}, "interpolation": 2}]}, "effects": [], "rotation": {"Points": [{"co": {"X": 1.0, "Y": 0.0}, "interpolation": 2}]}, "scale_x": {"Points": [{"co": {"X": 1.0, "Y": 1.0}, "interpolation": 2}]}, "layer": 3, "start": 0, "wave_color": {"red": {"Points": [{"handle_right": {"X": 0.5, "Y": 0.0}, "co": {"X": 1.0, "Y": 0.0}, "handle_type": 0, "handle_left": {"X": 0.5, "Y": 1.0}, "interpolation": 0}]}, "alpha": {"Points": [{"handle_right": {"X": 0.5, "Y": 0.0}, "co": {"X": 1.0, "Y": 255.0}, "handle_type": 0, "handle_left": {"X": 0.5, "Y": 1.0}, "interpolation": 0}]}, "green": {"Points": [{"handle_right": {"X": 0.5, "Y": 0.0}, "co": {"X": 1.0, "Y": 123.0}, "handle_type": 0, "handle_left": {"X": 0.5, "Y": 1.0}, "interpolation": 0}]}, "blue": {"Points": [{"handle_right": {"X": 0.5, "Y": 0.0}, "co": {"X": 1.0, "Y": 255.0}, "handle_type": 0, "handle_left": {"X": 0.5, "Y": 1.0}, "interpolation": 0}]}}, "crop_width": {"Points": [{"co": {"X": 1.0, "Y": -1.0}, "interpolation": 2}]}, "shear_x": {"Points": [{"co": {"X": 1.0, "Y": 0.0}, "interpolation": 2}]}, "file_id": "D42H60PHON", "image": "..\\..\\..\\.openshot_qt\\thumbnail\\D42H60PHON.png", "waveform": false, "perspective_c2_x": {"Points": [{"co": {"X": 1.0, "Y": -1.0}, "interpolation": 2}]}, "duration": 10.23999977111816, "perspective_c4_y": {"Points": [{"co": {"X": 1.0, "Y": -1.0}, "interpolation": 2}]}, "title": "VID_20171128_201205317.mp4", "scale_y": {"Points": [{"co": {"X": 1.0, "Y": 1.0}, "interpolation": 2}]}, "location_y": {"Points": [{"co": {"X": 1.0, "Y": 0.0}, "interpolation": 2}]}, "has_audio": {"Points": [{"co": {"X": 1.0, "Y": -1.0}, "interpolation": 2}]}, "perspective_c4_x": {"Points": [{"co": {"X": 1.0, "Y": -1.0}, "interpolation": 2}]}, "perspective_c1_x": {"Points": [{"co": {"X": 1.0, "Y": -1.0}, "interpolation": 2}]}, "volume": {"Points": [{"co": {"X": 1.0, "Y": 1.0}, "interpolation": 2}]}, "perspective_c1_y": {"Points": [{"co": {"X": 1.0, "Y": -1.0}, "interpolation": 2}]}, "location_x": {"Points": [{"co": {"X": 1.0, "Y": 0.0}, "interpolation": 2}]}, "perspective_c3_x": {"Points": [{"co": {"X": 1.0, "Y": -1.0}, "interpolation": 2}]}, "anchor": 0, "crop_height": {"Points": [{"co": {"X": 1.0, "Y": -1.0}, "interpolation": 2}]}, "id": "W4QOTCRXQT", "crop_x": {"Points": [{"co": {"X": 1.0, "Y": 0.0}, "interpolation": 2}]}, "time": {"Points": [{"co": {"X": 1.0, "Y": 1.0}, "interpolation": 2}]}, "display": 0, "perspective_c3_y": {"Points": [{"co": {"X": 1.0, "Y": -1.0}, "interpolation": 2}]}}], "channel_layout": 3, "markers": [], "playhead_position": 0, "fps": {"den": 1, "num": 24}, "effects": [], "tick_pixels": 100, "profile": "HDV 720 24p", "channels": 2, "progress": [], "files": [{"pixel_format": 0, "audio_timebase": {"den": 48000, "num": 1}, "has_audio": true, "channel_layout": 3, "height": 720, "type": "FFmpegReader", "path": "..\\..\\..\\Downloads\\VID_20171128_201205317.mp4", "display_ratio": {"den": 9, "num": 16}, "interlaced_frame": false, "fps": {"den": 51651, "num": 1550000}, "has_video": true, "has_single_image": false, "audio_bit_rate": 128370, "pixel_ratio": {"den": 1, "num": 1}, "video_stream_index": 0, "channels": 2, "video_length": "310", "video_bit_rate": 10532809, "vcodec": "h264", "id": "AOO24NL6LZ", "acodec": "aac", "media_type": "video", "audio_stream_index": 1, "video_timebase": {"den": 90000, "num": 1}, "file_size": "13579425", "top_field_first": true, "sample_rate": 48000, "width": 1280, "duration": 10.23999977111816}, {"pixel_format": 0, "audio_timebase": {"den": 48000, "num": 1}, "has_audio": true, "channel_layout": 3, "type": "FFmpegReader", "path": "..\\..\\..\\Downloads\\VID_20171128_201205317.mp4", "display_ratio": {"den": 9, "num": 16}, "interlaced_frame": false, "end": 0.9663735483870968, "fps": {"den": 51651, "num": 1550000}, "has_video": true, "has_single_image": false, "audio_bit_rate": 128370, "pixel_ratio": {"den": 1, "num": 1}, "video_stream_index": 0, "start": 0.0, "channels": 2, "video_length": "310", "video_bit_rate": 10532809, "vcodec": "h264", "id": "URZ1630Z17", "acodec": "aac", "media_type": "video", "audio_stream_index": 1, "video_timebase": {"den": 90000, "num": 1}, "file_size": "13579425", "height": 720, "top_field_first": true, "sample_rate": 48000, "width": 1280, "duration": 10.23999977111816}, {"pixel_format": 0, "audio_timebase": {"den": 48000, "num": 1}, "has_audio": true, "channel_layout": 3, "type": "FFmpegReader", "path": "..\\..\\..\\Downloads\\VID_20171128_201205317.mp4", "display_ratio": {"den": 9, "num": 16}, "interlaced_frame": false, "end": 1.9660703225806453, "fps": {"den": 51651, "num": 1550000}, "has_video": true, "has_single_image": false, "audio_bit_rate": 128370, "pixel_ratio": {"den": 1, "num": 1}, "video_stream_index": 0, "name": "Clip", "start": 0.0, "channels": 2, "video_length": "310", "video_bit_rate": 10532809, "vcodec": "h264", "id": "D42H60PHON", "acodec": "aac", "media_type": "video", "audio_stream_index": 1, "video_timebase": {"den": 90000, "num": 1}, "file_size": "13579425", "height": 720, "top_field_first": true, "sample_rate": 48000, "width": 1280, "duration": 10.23999977111816}], "width": 1280, "id": "T0", "scale": 16, "layers": [{"id": "L0", "number": 0, "lock": false, "y": 0, "label": ""}, {"id": "L1", "number": 1, "lock": false, "y": 0, "label": ""}, {"id": "L2", "number": 2, "lock": false, "y": 0, "label": ""}, {"id": "L3", "number": 3, "lock": false, "y": 0, "label": ""}, {"id": "L4", "number": 4, "lock": false, "y": 0, "label": ""}], "settings": {}, "height": 720, "sample_rate": 44100, "history": {"redo": [], "undo": [{"old_values": {"perspective_c4_y": {"Points": [{"co": {"X": 1.0, "Y": -1.0}, "interpolation": 2}]}, "crop_y": {"Points": [{"co": {"X": 1.0, "Y": 0.0}, "interpolation": 2}]}, "reader": {"pixel_format": 0, "audio_timebase": {"den": 48000, "num": 1}, "has_audio": true, "channel_layout": 3, "type": "FFmpegReader", "path": "C:/Users/Daniel/Downloads/VID_20171128_201205317.mp4", "display_ratio": {"den": 9, "num": 16}, "interlaced_frame": false, "fps": {"den": 51651, "num": 1550000}, "has_video": true, "has_single_image": false, "audio_bit_rate": 128370, "pixel_ratio": {"den": 1, "num": 1}, "video_stream_index": 0, "channels": 2, "video_length": "310", "video_bit_rate": 10532809, "vcodec": "h264", "acodec": "aac", "audio_stream_index": 1, "video_timebase": {"den": 90000, "num": 1}, "file_size": "13579425", "height": 720, "top_field_first": true, "sample_rate": 48000, "width": 1280, "duration": 10.23999977111816}, "location_y": {"Points": [{"co": {"X": 1.0, "Y": 0.0}, "interpolation": 2}]}, "title": "VID_20171128_201205317.mp4", "scale": 1, "channel_mapping": {"Points": [{"co": {"X": 1.0, "Y": -1.0}, "interpolation": 2}]}, "perspective_c1_x": {"Points": [{"co": {"X": 1.0, "Y": -1.0}, "interpolation": 2}]}, "scale_y": {"Points": [{"co": {"X": 1.0, "Y": 1.0}, "interpolation": 2}]}, "perspective_c2_y": {"Points": [{"co": {"X": 1.0, "Y": -1.0}, "interpolation": 2}]}, "alpha": {"Points": [{"co": {"X": 1.0, "Y": 1.0}, "interpolation": 2}]}, "position": 14.72, "scale_x": {"Points": [{"co": {"X": 1.0, "Y": 1.0}, "interpolation": 2}]}, "time": {"Points": [{"co": {"X": 1.0, "Y": 1.0}, "interpolation": 2}]}, "shear_x": {"Points": [{"co": {"X": 1.0, "Y": 0.0}, "interpolation": 2}]}, "end": 0.8063735483870966, "channel_filter": {"Points": [{"co": {"X": 1.0, "Y": -1.0}, "interpolation": 2}]}, "gravity": 4, "has_video": {"Points": [{"co": {"X": 1.0, "Y": -1.0}, "interpolation": 2}]}, "effects": [], "layer": 3, "rotation": {"Points": [{"co": {"X": 1.0, "Y": 0.0}, "interpolation": 2}]}, "perspective_c3_x": {"Points": [{"co": {"X": 1.0, "Y": -1.0}, "interpolation": 2}]}, "location_x": {"Points": [{"co": {"X": 1.0, "Y": 0.0}, "interpolation": 2}]}, "start": 0, "wave_color": {"red": {"Points": [{"handle_right": {"X": 0.5, "Y": 0.0}, "co": {"X": 1.0, "Y": 0.0}, "handle_type": 0, "handle_left": {"X": 0.5, "Y": 1.0}, "interpolation": 0}]}, "alpha": {"Points": [{"handle_right": {"X": 0.5, "Y": 0.0}, "co": {"X": 1.0, "Y": 255.0}, "handle_type": 0, "handle_left": {"X": 0.5, "Y": 1.0}, "interpolation": 0}]}, "green": {"Points": [{"handle_right": {"X": 0.5, "Y": 0.0}, "co": {"X": 1.0, "Y": 123.0}, "handle_type": 0, "handle_left": {"X": 0.5, "Y": 1.0}, "interpolation": 0}]}, "blue": {"Points": [{"handle_right": {"X": 0.5, "Y": 0.0}, "co": {"X": 1.0, "Y": 255.0}, "handle_type": 0, "handle_left": {"X": 0.5, "Y": 1.0}, "interpolation": 0}]}}, "anchor": 0, "crop_width": {"Points": [{"co": {"X": 1.0, "Y": -1.0}, "interpolation": 2}]}, "volume": {"Points": [{"co": {"X": 1.0, "Y": 1.0}, "interpolation": 2}]}, "crop_height": {"Points": [{"co": {"X": 1.0, "Y": -1.0}, "interpolation": 2}]}, "id": "2DD6CA7D77", "file_id": "URZ1630Z17", "has_audio": {"Points": [{"co": {"X": 1.0, "Y": -1.0}, "interpolation": 2}]}, "perspective_c1_y": {"Points": [{"co": {"X": 1.0, "Y": -1.0}, "interpolation": 2}]}, "crop_x": {"Points": [{"co": {"X": 1.0, "Y": 0.0}, "interpolation": 2}]}, "image": "C:\\Users\\Daniel\\.openshot_qt\\thumbnail\\URZ1630Z17.png", "waveform": false, "shear_y": {"Points": [{"co": {"X": 1.0, "Y": 0.0}, "interpolation": 2}]}, "perspective_c2_x": {"Points": [{"co": {"X": 1.0, "Y": -1.0}, "interpolation": 2}]}, "duration": 10.23999977111816, "display": 0, "perspective_c4_x": {"Points": [{"co": {"X": 1.0, "Y": -1.0}, "interpolation": 2}]}, "perspective_c3_y": {"Points": [{"co": {"X": 1.0, "Y": -1.0}, "interpolation": 2}]}}, "type": "update", "key": ["clips", {"id": "2DD6CA7D77"}], "value": {"id": "2DD6CA7D77", "position": 14.72, "layer": 3, "start": 0, "image": "C:\\Users\\Daniel\\.openshot_qt\\thumbnail\\URZ1630Z17.png", "end": 0.8063735483870966}, "partial": false}, {"old_values": {"perspective_c4_y": {"Points": [{"co": {"X": 1.0, "Y": -1.0}, "interpolation": 2}]}, "crop_y": {"Points": [{"co": {"X": 1.0, "Y": 0.0}, "interpolation": 2}]}, "reader": {"pixel_format": 0, "audio_timebase": {"den": 48000, "num": 1}, "has_audio": true, "channel_layout": 3, "type": "FFmpegReader", "path": "C:/Users/Daniel/Downloads/VID_20171128_201205317.mp4", "display_ratio": {"den": 9, "num": 16}, "interlaced_frame": false, "fps": {"den": 51651, "num": 1550000}, "has_video": true, "has_single_image": false, "audio_bit_rate": 128370, "pixel_ratio": {"den": 1, "num": 1}, "video_stream_index": 0, "channels": 2, "video_length": "310", "video_bit_rate": 10532809, "vcodec": "h264", "acodec": "aac", "audio_stream_index": 1, "video_timebase": {"den": 90000, "num": 1}, "file_size": "13579425", "height": 720, "top_field_first": true, "sample_rate": 48000, "width": 1280, "duration": 10.23999977111816}, "location_y": {"Points": [{"co": {"X": 1.0, "Y": 0.0}, "interpolation": 2}]}, "title": "VID_20171128_201205317.mp4", "scale": 1, "channel_mapping": {"Points": [{"co": {"X": 1.0, "Y": -1.0}, "interpolation": 2}]}, "perspective_c1_x": {"Points": [{"co": {"X": 1.0, "Y": -1.0}, "interpolation": 2}]}, "scale_y": {"Points": [{"co": {"X": 1.0, "Y": 1.0}, "interpolation": 2}]}, "perspective_c2_y": {"Points": [{"co": {"X": 1.0, "Y": -1.0}, "interpolation": 2}]}, "alpha": {"Points": [{"co": {"X": 1.0, "Y": 1.0}, "interpolation": 2}]}, "position": 14.72, "scale_x": {"Points": [{"co": {"X": 1.0, "Y": 1.0}, "interpolation": 2}]}, "time": {"Points": [{"co": {"X": 1.0, "Y": 1.0}, "interpolation": 2}]}, "shear_x": {"Points": [{"co": {"X": 1.0, "Y": 0.0}, "interpolation": 2}]}, "end": 0.8063735483870966, "channel_filter": {"Points": [{"co": {"X": 1.0, "Y": -1.0}, "interpolation": 2}]}, "gravity": 4, "has_video": {"Points": [{"co": {"X": 1.0, "Y": -1.0}, "interpolation": 2}]}, "effects": [], "layer": 3, "rotation": {"Points": [{"co": {"X": 1.0, "Y": 0.0}, "interpolation": 2}]}, "perspective_c3_x": {"Points": [{"co": {"X": 1.0, "Y": -1.0}, "interpolation": 2}]}, "location_x": {"Points": [{"co": {"X": 1.0, "Y": 0.0}, "interpolation": 2}]}, "start": 0, "wave_color": {"red": {"Points": [{"handle_right": {"X": 0.5, "Y": 0.0}, "co": {"X": 1.0, "Y": 0.0}, "handle_type": 0, "handle_left": {"X": 0.5, "Y": 1.0}, "interpolation": 0}]}, "alpha": {"Points": [{"handle_right": {"X": 0.5, "Y": 0.0}, "co": {"X": 1.0, "Y": 255.0}, "handle_type": 0, "handle_left": {"X": 0.5, "Y": 1.0}, "interpolation": 0}]}, "green": {"Points": [{"handle_right": {"X": 0.5, "Y": 0.0}, "co": {"X": 1.0, "Y": 123.0}, "handle_type": 0, "handle_left": {"X": 0.5, "Y": 1.0}, "interpolation": 0}]}, "blue": {"Points": [{"handle_right": {"X": 0.5, "Y": 0.0}, "co": {"X": 1.0, "Y": 255.0}, "handle_type": 0, "handle_left": {"X": 0.5, "Y": 1.0}, "interpolation": 0}]}}, "anchor": 0, "crop_width": {"Points": [{"co": {"X": 1.0, "Y": -1.0}, "interpolation": 2}]}, "volume": {"Points": [{"co": {"X": 1.0, "Y": 1.0}, "interpolation": 2}]}, "crop_height": {"Points": [{"co": {"X": 1.0, "Y": -1.0}, "interpolation": 2}]}, "id": "2DD6CA7D77", "file_id": "URZ1630Z17", "has_audio": {"Points": [{"co": {"X": 1.0, "Y": -1.0}, "interpolation": 2}]}, "perspective_c1_y": {"Points": [{"co": {"X": 1.0, "Y": -1.0}, "interpolation": 2}]}, "crop_x": {"Points": [{"co": {"X": 1.0, "Y": 0.0}, "interpolation": 2}]}, "image": "C:\\Users\\Daniel\\.openshot_qt\\thumbnail\\URZ1630Z17.png", "waveform": false, "shear_y": {"Points": [{"co": {"X": 1.0, "Y": 0.0}, "interpolation": 2}]}, "perspective_c2_x": {"Points": [{"co": {"X": 1.0, "Y": -1.0}, "interpolation": 2}]}, "duration": 10.23999977111816, "display": 0, "perspective_c4_x": {"Points": [{"co": {"X": 1.0, "Y": -1.0}, "interpolation": 2}]}, "perspective_c3_y": {"Points": [{"co": {"X": 1.0, "Y": -1.0}, "interpolation": 2}]}}, "type": "update", "key": ["clips", {"id": "2DD6CA7D77"}], "value": {"id": "2DD6CA7D77", "position": 14.72, "layer": 3, "start": 0, "image": "C:\\Users\\Daniel\\.openshot_qt\\thumbnail\\URZ1630Z17.png", "end": 0.8063735483870966}, "partial": false}, {"old_values": {"perspective_c4_y": {"Points": [{"co": {"X": 1.0, "Y": -1.0}, "interpolation": 2}]}, "crop_y": {"Points": [{"co": {"X": 1.0, "Y": 0.0}, "interpolation": 2}]}, "reader": {"pixel_format": 0, "audio_timebase": {"den": 48000, "num": 1}, "has_audio": true, "channel_layout": 3, "type": "FFmpegReader", "path": "C:/Users/Daniel/Downloads/VID_20171128_201205317.mp4", "display_ratio": {"den": 9, "num": 16}, "interlaced_frame": false, "fps": {"den": 51651, "num": 1550000}, "has_video": true, "has_single_image": false, "audio_bit_rate": 128370, "pixel_ratio": {"den": 1, "num": 1}, "video_stream_index": 0, "channels": 2, "video_length": "310", "video_bit_rate": 10532809, "vcodec": "h264", "acodec": "aac", "audio_stream_index": 1, "video_timebase": {"den": 90000, "num": 1}, "file_size": "13579425", "height": 720, "top_field_first": true, "sample_rate": 48000, "width": 1280, "duration": 10.23999977111816}, "location_y": {"Points": [{"co": {"X": 1.0, "Y": 0.0}, "interpolation": 2}]}, "title": "VID_20171128_201205317.mp4", "scale": 1, "channel_mapping": {"Points": [{"co": {"X": 1.0, "Y": -1.0}, "interpolation": 2}]}, "perspective_c1_x": {"Points": [{"co": {"X": 1.0, "Y": -1.0}, "interpolation": 2}]}, "scale_y": {"Points": [{"co": {"X": 1.0, "Y": 1.0}, "interpolation": 2}]}, "perspective_c2_y": {"Points": [{"co": {"X": 1.0, "Y": -1.0}, "interpolation": 2}]}, "alpha": {"Points": [{"co": {"X": 1.0, "Y": 1.0}, "interpolation": 2}]}, "position": 14.72, "scale_x": {"Points": [{"co": {"X": 1.0, "Y": 1.0}, "interpolation": 2}]}, "time": {"Points": [{"co": {"X": 1.0, "Y": 1.0}, "interpolation": 2}]}, "shear_x": {"Points": [{"co": {"X": 1.0, "Y": 0.0}, "interpolation": 2}]}, "end": 0.8063735483870966, "channel_filter": {"Points": [{"co": {"X": 1.0, "Y": -1.0}, "interpolation": 2}]}, "gravity": 4, "has_video": {"Points": [{"co": {"X": 1.0, "Y": -1.0}, "interpolation": 2}]}, "effects": [], "layer": 3, "rotation": {"Points": [{"co": {"X": 1.0, "Y": 0.0}, "interpolation": 2}]}, "perspective_c3_x": {"Points": [{"co": {"X": 1.0, "Y": -1.0}, "interpolation": 2}]}, "location_x": {"Points": [{"co": {"X": 1.0, "Y": 0.0}, "interpolation": 2}]}, "start": 0, "wave_color": {"red": {"Points": [{"handle_right": {"X": 0.5, "Y": 0.0}, "co": {"X": 1.0, "Y": 0.0}, "handle_type": 0, "handle_left": {"X": 0.5, "Y": 1.0}, "interpolation": 0}]}, "alpha": {"Points": [{"handle_right": {"X": 0.5, "Y": 0.0}, "co": {"X": 1.0, "Y": 255.0}, "handle_type": 0, "handle_left": {"X": 0.5, "Y": 1.0}, "interpolation": 0}]}, "green": {"Points": [{"handle_right": {"X": 0.5, "Y": 0.0}, "co": {"X": 1.0, "Y": 123.0}, "handle_type": 0, "handle_left": {"X": 0.5, "Y": 1.0}, "interpolation": 0}]}, "blue": {"Points": [{"handle_right": {"X": 0.5, "Y": 0.0}, "co": {"X": 1.0, "Y": 255.0}, "handle_type": 0, "handle_left": {"X": 0.5, "Y": 1.0}, "interpolation": 0}]}}, "anchor": 0, "crop_width": {"Points": [{"co": {"X": 1.0, "Y": -1.0}, "interpolation": 2}]}, "volume": {"Points": [{"co": {"X": 1.0, "Y": 1.0}, "interpolation": 2}]}, "crop_height": {"Points": [{"co": {"X": 1.0, "Y": -1.0}, "interpolation": 2}]}, "id": "2DD6CA7D77", "file_id": "URZ1630Z17", "has_audio": {"Points": [{"co": {"X": 1.0, "Y": -1.0}, "interpolation": 2}]}, "perspective_c1_y": {"Points": [{"co": {"X": 1.0, "Y": -1.0}, "interpolation": 2}]}, "crop_x": {"Points": [{"co": {"X": 1.0, "Y": 0.0}, "interpolation": 2}]}, "image": "C:\\Users\\Daniel\\.openshot_qt\\thumbnail\\URZ1630Z17.png", "waveform": false, "shear_y": {"Points": [{"co": {"X": 1.0, "Y": 0.0}, "interpolation": 2}]}, "perspective_c2_x": {"Points": [{"co": {"X": 1.0, "Y": -1.0}, "interpolation": 2}]}, "duration": 10.23999977111816, "display": 0, "perspective_c4_x": {"Points": [{"co": {"X": 1.0, "Y": -1.0}, "interpolation": 2}]}, "perspective_c3_y": {"Points": [{"co": {"X": 1.0, "Y": -1.0}, "interpolation": 2}]}}, "type": "update", "key": ["clips", {"id": "2DD6CA7D77"}], "value": {"id": "2DD6CA7D77", "position": 14.72, "layer": 3, "start": 0, "image": "C:\\Users\\Daniel\\.openshot_qt\\thumbnail\\URZ1630Z17.png", "end": 4.486373548387097}, "partial": false}, {"old_values": {"perspective_c4_y": {"Points": [{"co": {"X": 1.0, "Y": -1.0}, "interpolation": 2}]}, "crop_y": {"Points": [{"co": {"X": 1.0, "Y": 0.0}, "interpolation": 2}]}, "reader": {"pixel_format": 0, "audio_timebase": {"den": 48000, "num": 1}, "has_audio": true, "channel_layout": 3, "type": "FFmpegReader", "path": "C:/Users/Daniel/Downloads/VID_20171128_201205317.mp4", "display_ratio": {"den": 9, "num": 16}, "interlaced_frame": false, "fps": {"den": 51651, "num": 1550000}, "has_video": true, "has_single_image": false, "audio_bit_rate": 128370, "pixel_ratio": {"den": 1, "num": 1}, "video_stream_index": 0, "channels": 2, "video_length": "310", "video_bit_rate": 10532809, "vcodec": "h264", "acodec": "aac", "audio_stream_index": 1, "video_timebase": {"den": 90000, "num": 1}, "file_size": "13579425", "height": 720, "top_field_first": true, "sample_rate": 48000, "width": 1280, "duration": 10.23999977111816}, "location_y": {"Points": [{"co": {"X": 1.0, "Y": 0.0}, "interpolation": 2}]}, "title": "VID_20171128_201205317.mp4", "scale": 1, "channel_mapping": {"Points": [{"co": {"X": 1.0, "Y": -1.0}, "interpolation": 2}]}, "perspective_c1_x": {"Points": [{"co": {"X": 1.0, "Y": -1.0}, "interpolation": 2}]}, "scale_y": {"Points": [{"co": {"X": 1.0, "Y": 1.0}, "interpolation": 2}]}, "perspective_c2_y": {"Points": [{"co": {"X": 1.0, "Y": -1.0}, "interpolation": 2}]}, "alpha": {"Points": [{"co": {"X": 1.0, "Y": 1.0}, "interpolation": 2}]}, "position": 14.72, "scale_x": {"Points": [{"co": {"X": 1.0, "Y": 1.0}, "interpolation": 2}]}, "time": {"Points": [{"co": {"X": 1.0, "Y": 1.0}, "interpolation": 2}]}, "shear_x": {"Points": [{"co": {"X": 1.0, "Y": 0.0}, "interpolation": 2}]}, "end": 4.486373548387097, "channel_filter": {"Points": [{"co": {"X": 1.0, "Y": -1.0}, "interpolation": 2}]}, "gravity": 4, "has_video": {"Points": [{"co": {"X": 1.0, "Y": -1.0}, "interpolation": 2}]}, "effects": [], "layer": 3, "rotation": {"Points": [{"co": {"X": 1.0, "Y": 0.0}, "interpolation": 2}]}, "perspective_c3_x": {"Points": [{"co": {"X": 1.0, "Y": -1.0}, "interpolation": 2}]}, "location_x": {"Points": [{"co": {"X": 1.0, "Y": 0.0}, "interpolation": 2}]}, "start": 0, "wave_color": {"red": {"Points": [{"handle_right": {"X": 0.5, "Y": 0.0}, "co": {"X": 1.0, "Y": 0.0}, "handle_type": 0, "handle_left": {"X": 0.5, "Y": 1.0}, "interpolation": 0}]}, "alpha": {"Points": [{"handle_right": {"X": 0.5, "Y": 0.0}, "co": {"X": 1.0, "Y": 255.0}, "handle_type": 0, "handle_left": {"X": 0.5, "Y": 1.0}, "interpolation": 0}]}, "green": {"Points": [{"handle_right": {"X": 0.5, "Y": 0.0}, "co": {"X": 1.0, "Y": 123.0}, "handle_type": 0, "handle_left": {"X": 0.5, "Y": 1.0}, "interpolation": 0}]}, "blue": {"Points": [{"handle_right": {"X": 0.5, "Y": 0.0}, "co": {"X": 1.0, "Y": 255.0}, "handle_type": 0, "handle_left": {"X": 0.5, "Y": 1.0}, "interpolation": 0}]}}, "anchor": 0, "crop_width": {"Points": [{"co": {"X": 1.0, "Y": -1.0}, "interpolation": 2}]}, "volume": {"Points": [{"co": {"X": 1.0, "Y": 1.0}, "interpolation": 2}]}, "crop_height": {"Points": [{"co": {"X": 1.0, "Y": -1.0}, "interpolation": 2}]}, "id": "2DD6CA7D77", "file_id": "URZ1630Z17", "has_audio": {"Points": [{"co": {"X": 1.0, "Y": -1.0}, "interpolation": 2}]}, "perspective_c1_y": {"Points": [{"co": {"X": 1.0, "Y": -1.0}, "interpolation": 2}]}, "crop_x": {"Points": [{"co": {"X": 1.0, "Y": 0.0}, "interpolation": 2}]}, "image": "C:\\Users\\Daniel\\.openshot_qt\\thumbnail\\URZ1630Z17.png", "waveform": false, "shear_y": {"Points": [{"co": {"X": 1.0, "Y": 0.0}, "interpolation": 2}]}, "perspective_c2_x": {"Points": [{"co": {"X": 1.0, "Y": -1.0}, "interpolation": 2}]}, "duration": 10.23999977111816, "display": 0, "perspective_c4_x": {"Points": [{"co": {"X": 1.0, "Y": -1.0}, "interpolation": 2}]}, "perspective_c3_y": {"Points": [{"co": {"X": 1.0, "Y": -1.0}, "interpolation": 2}]}}, "type": "update", "key": ["clips", {"id": "2DD6CA7D77"}], "value": {"id": "2DD6CA7D77", "position": 3.5824999999999996, "layer": 3, "start": 0, "image": "C:\\Users\\Daniel\\.openshot_qt\\thumbnail\\URZ1630Z17.png", "end": 4.486373548387097}, "partial": false}, {"old_values": [{"perspective_c4_y": {"Points": [{"co": {"X": 1.0, "Y": -1.0}, "interpolation": 2}]}, "crop_y": {"Points": [{"co": {"X": 1.0, "Y": 0.0}, "interpolation": 2}]}, "reader": {"pixel_format": 0, "audio_timebase": {"den": 48000, "num": 1}, "has_audio": true, "channel_layout": 3, "type": "FFmpegReader", "path": "C:/Users/Daniel/Downloads/VID_20171128_201205317.mp4", "display_ratio": {"den": 9, "num": 16}, "interlaced_frame": false, "fps": {"den": 51651, "num": 1550000}, "has_video": true, "has_single_image": false, "audio_bit_rate": 128370, "pixel_ratio": {"den": 1, "num": 1}, "video_stream_index": 0, "channels": 2, "video_length": "310", "video_bit_rate": 10532809, "vcodec": "h264", "acodec": "aac", "audio_stream_index": 1, "video_timebase": {"den": 90000, "num": 1}, "file_size": "13579425", "height": 720, "top_field_first": true, "sample_rate": 48000, "width": 1280, "duration": 10.23999977111816}, "location_y": {"Points": [{"co": {"X": 1.0, "Y": 0.0}, "interpolation": 2}]}, "title": "VID_20171128_201205317.mp4", "scale": 1, "channel_mapping": {"Points": [{"co": {"X": 1.0, "Y": -1.0}, "interpolation": 2}]}, "perspective_c1_x": {"Points": [{"co": {"X": 1.0, "Y": -1.0}, "interpolation": 2}]}, "scale_y": {"Points": [{"co": {"X": 1.0, "Y": 1.0}, "interpolation": 2}]}, "perspective_c2_y": {"Points": [{"co": {"X": 1.0, "Y": -1.0}, "interpolation": 2}]}, "alpha": {"Points": [{"co": {"X": 1.0, "Y": 1.0}, "interpolation": 2}]}, "position": 3.5824999999999996, "scale_x": {"Points": [{"co": {"X": 1.0, "Y": 1.0}, "interpolation": 2}]}, "time": {"Points": [{"co": {"X": 1.0, "Y": 1.0}, "interpolation": 2}]}, "shear_x": {"Points": [{"co": {"X": 1.0, "Y": 0.0}, "interpolation": 2}]}, "end": 4.486373548387097, "channel_filter": {"Points": [{"co": {"X": 1.0, "Y": -1.0}, "interpolation": 2}]}, "gravity": 4, "has_video": {"Points": [{"co": {"X": 1.0, "Y": -1.0}, "interpolation": 2}]}, "effects": [], "layer": 3, "rotation": {"Points": [{"co": {"X": 1.0, "Y": 0.0}, "interpolation": 2}]}, "perspective_c3_x": {"Points": [{"co": {"X": 1.0, "Y": -1.0}, "interpolation": 2}]}, "location_x": {"Points": [{"co": {"X": 1.0, "Y": 0.0}, "interpolation": 2}]}, "start": 0, "wave_color": {"red": {"Points": [{"handle_right": {"X": 0.5, "Y": 0.0}, "co": {"X": 1.0, "Y": 0.0}, "handle_type": 0, "handle_left": {"X": 0.5, "Y": 1.0}, "interpolation": 0}]}, "alpha": {"Points": [{"handle_right": {"X": 0.5, "Y": 0.0}, "co": {"X": 1.0, "Y": 255.0}, "handle_type": 0, "handle_left": {"X": 0.5, "Y": 1.0}, "interpolation": 0}]}, "green": {"Points": [{"handle_right": {"X": 0.5, "Y": 0.0}, "co": {"X": 1.0, "Y": 123.0}, "handle_type": 0, "handle_left": {"X": 0.5, "Y": 1.0}, "interpolation": 0}]}, "blue": {"Points": [{"handle_right": {"X": 0.5, "Y": 0.0}, "co": {"X": 1.0, "Y": 255.0}, "handle_type": 0, "handle_left": {"X": 0.5, "Y": 1.0}, "interpolation": 0}]}}, "anchor": 0, "crop_width": {"Points": [{"co": {"X": 1.0, "Y": -1.0}, "interpolation": 2}]}, "volume": {"Points": [{"co": {"X": 1.0, "Y": 1.0}, "interpolation": 2}]}, "crop_height": {"Points": [{"co": {"X": 1.0, "Y": -1.0}, "interpolation": 2}]}, "id": "2DD6CA7D77", "file_id": "URZ1630Z17", "has_audio": {"Points": [{"co": {"X": 1.0, "Y": -1.0}, "interpolation": 2}]}, "perspective_c1_y": {"Points": [{"co": {"X": 1.0, "Y": -1.0}, "interpolation": 2}]}, "crop_x": {"Points": [{"co": {"X": 1.0, "Y": 0.0}, "interpolation": 2}]}, "image": "C:\\Users\\Daniel\\.openshot_qt\\thumbnail\\URZ1630Z17.png", "waveform": false, "shear_y": {"Points": [{"co": {"X": 1.0, "Y": 0.0}, "interpolation": 2}]}, "perspective_c2_x": {"Points": [{"co": {"X": 1.0, "Y": -1.0}, "interpolation": 2}]}, "duration": 10.23999977111816, "display": 0, "perspective_c4_x": {"Points": [{"co": {"X": 1.0, "Y": -1.0}, "interpolation": 2}]}, "perspective_c3_y": {"Points": [{"co": {"X": 1.0, "Y": -1.0}, "interpolation": 2}]}}], "type": "insert", "key": ["clips"], "value": {"perspective_c4_y": {"Points": [{"co": {"Y": -1.0, "X": 1.0}, "interpolation": 2}]}, "crop_y": {"Points": [{"co": {"Y": 0.0, "X": 1.0}, "interpolation": 2}]}, "reader": {"pixel_format": 0, "audio_timebase": {"den": 48000, "num": 1}, "has_audio": true, "channel_layout": 3, "type": "FFmpegReader", "path": "C:/Users/Daniel/Downloads/VID_20171128_201205317.mp4", "display_ratio": {"den": 9, "num": 16}, "interlaced_frame": false, "fps": {"den": 51651, "num": 1550000}, "has_video": true, "has_single_image": false, "audio_bit_rate": 128370, "pixel_ratio": {"den": 1, "num": 1}, "video_stream_index": 0, "channels": 2, "video_length": "310", "video_bit_rate": 10532809, "vcodec": "h264", "acodec": "aac", "audio_stream_index": 1, "video_timebase": {"den": 90000, "num": 1}, "file_size": "13579425", "height": 720, "top_field_first": true, "sample_rate": 48000, "width": 1280, "duration": 10.23999977111816}, "location_y": {"Points": [{"co": {"Y": 0.0, "X": 1.0}, "interpolation": 2}]}, "title": "VID_20171128_201205317.mp4", "scale": 1, "channel_mapping": {"Points": [{"co": {"Y": -1.0, "X": 1.0}, "interpolation": 2}]}, "perspective_c1_x": {"Points": [{"co": {"Y": -1.0, "X": 1.0}, "interpolation": 2}]}, "scale_y": {"Points": [{"co": {"Y": 1.0, "X": 1.0}, "interpolation": 2}]}, "time": {"Points": [{"co": {"Y": 1.0, "X": 1.0}, "interpolation": 2}]}, "perspective_c2_y": {"Points": [{"co": {"Y": -1.0, "X": 1.0}, "interpolation": 2}]}, "alpha": {"Points": [{"co": {"Y": 1.0, "X": 1.0}, "interpolation": 2}]}, "position": 22.4, "perspective_c3_x": {"Points": [{"co": {"Y": -1.0, "X": 1.0}, "interpolation": 2}]}, "shear_y": {"Points": [{"co": {"Y": 0.0, "X": 1.0}, "interpolation": 2}]}, "end": 0.9663735483870968, "channel_filter": {"Points": [{"co": {"Y": -1.0, "X": 1.0}, "interpolation": 2}]}, "gravity": 4, "volume": {"Points": [{"co": {"Y": 1.0, "X": 1.0}, "interpolation": 2}]}, "has_video": {"Points": [{"co": {"Y": -1.0, "X": 1.0}, "interpolation": 2}]}, "effects": [], "location_x": {"Points": [{"co": {"Y": 0.0, "X": 1.0}, "interpolation": 2}]}, "id": "13HBAT3JZF", "scale_x": {"Points": [{"co": {"Y": 1.0, "X": 1.0}, "interpolation": 2}]}, "layer": 3, "start": 0.16, "wave_color": {"red": {"Points": [{"handle_right": {"Y": 0.0, "X": 0.5}, "co": {"Y": 0.0, "X": 1.0}, "handle_type": 0, "handle_left": {"Y": 1.0, "X": 0.5}, "interpolation": 0}]}, "alpha": {"Points": [{"handle_right": {"Y": 0.0, "X": 0.5}, "co": {"Y": 255.0, "X": 1.0}, "handle_type": 0, "handle_left": {"Y": 1.0, "X": 0.5}, "interpolation": 0}]}, "green": {"Points": [{"handle_right": {"Y": 0.0, "X": 0.5}, "co": {"Y": 123.0, "X": 1.0}, "handle_type": 0, "handle_left": {"Y": 1.0, "X": 0.5}, "interpolation": 0}]}, "blue": {"Points": [{"handle_right": {"Y": 0.0, "X": 0.5}, "co": {"Y": 255.0, "X": 1.0}, "handle_type": 0, "handle_left": {"Y": 1.0, "X": 0.5}, "interpolation": 0}]}}, "anchor": 0, "crop_width": {"Points": [{"co": {"Y": -1.0, "X": 1.0}, "interpolation": 2}]}, "shear_x": {"Points": [{"co": {"Y": 0.0, "X": 1.0}, "interpolation": 2}]}, "crop_height": {"Points": [{"co": {"Y": -1.0, "X": 1.0}, "interpolation": 2}]}, "rotation": {"Points": [{"co": {"Y": 0.0, "X": 1.0}, "interpolation": 2}]}, "file_id": "URZ1630Z17", "has_audio": {"Points": [{"co": {"Y": -1.0, "X": 1.0}, "interpolation": 2}]}, "crop_x": {"Points": [{"co": {"Y": 0.0, "X": 1.0}, "interpolation": 2}]}, "image": "C:\\Users\\Daniel\\.openshot_qt\\thumbnail\\13HBAT3JZF-6.png", "waveform": false, "perspective_c1_y": {"Points": [{"co": {"Y": -1.0, "X": 1.0}, "interpolation": 2}]}, "perspective_c2_x": {"Points": [{"co": {"Y": -1.0, "X": 1.0}, "interpolation": 2}]}, "perspective_c3_y": {"Points": [{"co": {"Y": -1.0, "X": 1.0}, "interpolation": 2}]}, "display": 0, "perspective_c4_x": {"Points": [{"co": {"Y": -1.0, "X": 1.0}, "interpolation": 2}]}, "duration": 10.23999977111816}, "partial": false}, {"old_values": {"perspective_c4_y": {"Points": [{"co": {"X": 1.0, "Y": -1.0}, "interpolation": 2}]}, "crop_y": {"Points": [{"co": {"X": 1.0, "Y": 0.0}, "interpolation": 2}]}, "reader": {"pixel_format": 0, "audio_timebase": {"den": 48000, "num": 1}, "has_audio": true, "channel_layout": 3, "type": "FFmpegReader", "path": "C:/Users/Daniel/Downloads/VID_20171128_201205317.mp4", "display_ratio": {"den": 9, "num": 16}, "interlaced_frame": false, "fps": {"den": 51651, "num": 1550000}, "has_video": true, "has_single_image": false, "audio_bit_rate": 128370, "pixel_ratio": {"den": 1, "num": 1}, "video_stream_index": 0, "channels": 2, "video_length": "310", "video_bit_rate": 10532809, "vcodec": "h264", "acodec": "aac", "audio_stream_index": 1, "video_timebase": {"den": 90000, "num": 1}, "file_size": "13579425", "height": 720, "top_field_first": true, "sample_rate": 48000, "width": 1280, "duration": 10.23999977111816}, "location_y": {"Points": [{"co": {"X": 1.0, "Y": 0.0}, "interpolation": 2}]}, "waveform": false, "has_audio": {"Points": [{"co": {"X": 1.0, "Y": -1.0}, "interpolation": 2}]}, "scale": 1, "channel_mapping": {"Points": [{"co": {"X": 1.0, "Y": -1.0}, "interpolation": 2}]}, "perspective_c1_x": {"Points": [{"co": {"X": 1.0, "Y": -1.0}, "interpolation": 2}]}, "scale_y": {"Points": [{"co": {"X": 1.0, "Y": 1.0}, "interpolation": 2}]}, "time": {"Points": [{"co": {"X": 1.0, "Y": 1.0}, "interpolation": 2}]}, "perspective_c2_y": {"Points": [{"co": {"X": 1.0, "Y": -1.0}, "interpolation": 2}]}, "alpha": {"Points": [{"co": {"X": 1.0, "Y": 1.0}, "interpolation": 2}]}, "position": 16.64, "perspective_c3_x": {"Points": [{"co": {"X": 1.0, "Y": -1.0}, "interpolation": 2}]}, "shear_y": {"Points": [{"co": {"X": 1.0, "Y": 0.0}, "interpolation": 2}]}, "end": 0.9663735483870968, "channel_filter": {"Points": [{"co": {"X": 1.0, "Y": -1.0}, "interpolation": 2}]}, "gravity": 4, "has_video": {"Points": [{"co": {"X": 1.0, "Y": -1.0}, "interpolation": 2}]}, "effects": [], "layer": 4, "id": "13HBAT3JZF", "scale_x": {"Points": [{"co": {"X": 1.0, "Y": 1.0}, "interpolation": 2}]}, "location_x": {"Points": [{"co": {"X": 1.0, "Y": 0.0}, "interpolation": 2}]}, "start": 0.0, "wave_color": {"red": {"Points": [{"handle_right": {"X": 0.5, "Y": 0.0}, "co": {"X": 1.0, "Y": 0.0}, "handle_type": 0, "handle_left": {"X": 0.5, "Y": 1.0}, "interpolation": 0}]}, "alpha": {"Points": [{"handle_right": {"X": 0.5, "Y": 0.0}, "co": {"X": 1.0, "Y": 255.0}, "handle_type": 0, "handle_left": {"X": 0.5, "Y": 1.0}, "interpolation": 0}]}, "green": {"Points": [{"handle_right": {"X": 0.5, "Y": 0.0}, "co": {"X": 1.0, "Y": 123.0}, "handle_type": 0, "handle_left": {"X": 0.5, "Y": 1.0}, "interpolation": 0}]}, "blue": {"Points": [{"handle_right": {"X": 0.5, "Y": 0.0}, "co": {"X": 1.0, "Y": 255.0}, "handle_type": 0, "handle_left": {"X": 0.5, "Y": 1.0}, "interpolation": 0}]}}, "anchor": 0, "crop_width": {"Points": [{"co": {"X": 1.0, "Y": -1.0}, "interpolation": 2}]}, "shear_x": {"Points": [{"co": {"X": 1.0, "Y": 0.0}, "interpolation": 2}]}, "crop_height": {"Points": [{"co": {"X": 1.0, "Y": -1.0}, "interpolation": 2}]}, "rotation": {"Points": [{"co": {"X": 1.0, "Y": 0.0}, "interpolation": 2}]}, "file_id": "URZ1630Z17", "crop_x": {"Points": [{"co": {"X": 1.0, "Y": 0.0}, "interpolation": 2}]}, "title": "VID_20171128_201205317.mp4", "image": "C:\\Users\\Daniel\\.openshot_qt\\thumbnail\\URZ1630Z17.png", "volume": {"Points": [{"co": {"X": 1.0, "Y": 1.0}, "interpolation": 2}]}, "perspective_c1_y": {"Points": [{"co": {"X": 1.0, "Y": -1.0}, "interpolation": 2}]}, "perspective_c2_x": {"Points": [{"co": {"X": 1.0, "Y": -1.0}, "interpolation": 2}]}, "duration": 10.23999977111816, "display": 0, "perspective_c4_x": {"Points": [{"co": {"X": 1.0, "Y": -1.0}, "interpolation": 2}]}, "perspective_c3_y": {"Points": [{"co": {"X": 1.0, "Y": -1.0}, "interpolation": 2}]}}, "type": "update", "key": ["clips", {"id": "13HBAT3JZF"}], "value": {"id": "13HBAT3JZF", "position": 22.24, "layer": 3, "start": 0, "image": "C:\\Users\\Daniel\\.openshot_qt\\thumbnail\\URZ1630Z17.png", "end": 0.9663735483870968}, "partial": false}, {"old_values": {"perspective_c4_y": {"Points": [{"co": {"X": 1.0, "Y": -1.0}, "interpolation": 2}]}, "crop_y": {"Points": [{"co": {"X": 1.0, "Y": 0.0}, "interpolation": 2}]}, "reader": {"pixel_format": 0, "audio_timebase": {"den": 48000, "num": 1}, "has_audio": true, "channel_layout": 3, "type": "FFmpegReader", "path": "C:/Users/Daniel/Downloads/VID_20171128_201205317.mp4", "display_ratio": {"den": 9, "num": 16}, "interlaced_frame": false, "fps": {"den": 51651, "num": 1550000}, "has_video": true, "has_single_image": false, "audio_bit_rate": 128370, "pixel_ratio": {"den": 1, "num": 1}, "video_stream_index": 0, "channels": 2, "video_length": "310", "video_bit_rate": 10532809, "vcodec": "h264", "acodec": "aac", "audio_stream_index": 1, "video_timebase": {"den": 90000, "num": 1}, "file_size": "13579425", "height": 720, "top_field_first": true, "sample_rate": 48000, "width": 1280, "duration": 10.23999977111816}, "location_y": {"Points": [{"co": {"X": 1.0, "Y": 0.0}, "interpolation": 2}]}, "title": "VID_20171128_201205317.mp4", "scale": 1, "channel_mapping": {"Points": [{"co": {"X": 1.0, "Y": -1.0}, "interpolation": 2}]}, "perspective_c1_x": {"Points": [{"co": {"X": 1.0, "Y": -1.0}, "interpolation": 2}]}, "scale_y": {"Points": [{"co": {"X": 1.0, "Y": 1.0}, "interpolation": 2}]}, "perspective_c2_y": {"Points": [{"co": {"X": 1.0, "Y": -1.0}, "interpolation": 2}]}, "alpha": {"Points": [{"co": {"X": 1.0, "Y": 1.0}, "interpolation": 2}]}, "position": 3.5824999999999996, "scale_x": {"Points": [{"co": {"X": 1.0, "Y": 1.0}, "interpolation": 2}]}, "time": {"Points": [{"co": {"X": 1.0, "Y": 1.0}, "interpolation": 2}]}, "shear_x": {"Points": [{"co": {"X": 1.0, "Y": 0.0}, "interpolation": 2}]}, "end": 4.486373548387097, "channel_filter": {"Points": [{"co": {"X": 1.0, "Y": -1.0}, "interpolation": 2}]}, "gravity": 4, "has_video": {"Points": [{"co": {"X": 1.0, "Y": -1.0}, "interpolation": 2}]}, "effects": [], "layer": 3, "rotation": {"Points": [{"co": {"X": 1.0, "Y": 0.0}, "interpolation": 2}]}, "perspective_c3_x": {"Points": [{"co": {"X": 1.0, "Y": -1.0}, "interpolation": 2}]}, "location_x": {"Points": [{"co": {"X": 1.0, "Y": 0.0}, "interpolation": 2}]}, "start": 0, "wave_color": {"red": {"Points": [{"handle_right": {"X": 0.5, "Y": 0.0}, "co": {"X": 1.0, "Y": 0.0}, "handle_type": 0, "handle_left": {"X": 0.5, "Y": 1.0}, "interpolation": 0}]}, "alpha": {"Points": [{"handle_right": {"X": 0.5, "Y": 0.0}, "co": {"X": 1.0, "Y": 255.0}, "handle_type": 0, "handle_left": {"X": 0.5, "Y": 1.0}, "interpolation": 0}]}, "green": {"Points": [{"handle_right": {"X": 0.5, "Y": 0.0}, "co": {"X": 1.0, "Y": 123.0}, "handle_type": 0, "handle_left": {"X": 0.5, "Y": 1.0}, "interpolation": 0}]}, "blue": {"Points": [{"handle_right": {"X": 0.5, "Y": 0.0}, "co": {"X": 1.0, "Y": 255.0}, "handle_type": 0, "handle_left": {"X": 0.5, "Y": 1.0}, "interpolation": 0}]}}, "anchor": 0, "crop_width": {"Points": [{"co": {"X": 1.0, "Y": -1.0}, "interpolation": 2}]}, "volume": {"Points": [{"co": {"X": 1.0, "Y": 1.0}, "interpolation": 2}]}, "crop_height": {"Points": [{"co": {"X": 1.0, "Y": -1.0}, "interpolation": 2}]}, "id": "2DD6CA7D77", "file_id": "URZ1630Z17", "has_audio": {"Points": [{"co": {"X": 1.0, "Y": -1.0}, "interpolation": 2}]}, "perspective_c1_y": {"Points": [{"co": {"X": 1.0, "Y": -1.0}, "interpolation": 2}]}, "crop_x": {"Points": [{"co": {"X": 1.0, "Y": 0.0}, "interpolation": 2}]}, "image": "C:\\Users\\Daniel\\.openshot_qt\\thumbnail\\URZ1630Z17.png", "waveform": false, "shear_y": {"Points": [{"co": {"X": 1.0, "Y": 0.0}, "interpolation": 2}]}, "perspective_c2_x": {"Points": [{"co": {"X": 1.0, "Y": -1.0}, "interpolation": 2}]}, "duration": 10.23999977111816, "display": 0, "perspective_c4_x": {"Points": [{"co": {"X": 1.0, "Y": -1.0}, "interpolation": 2}]}, "perspective_c3_y": {"Points": [{"co": {"X": 1.0, "Y": -1.0}, "interpolation": 2}]}}, "type": "delete", "key": ["clips", {"id": "2DD6CA7D77"}], "value": null, "partial": false}, {"old_values": {"perspective_c4_y": {"Points": [{"co": {"X": 1.0, "Y": -1.0}, "interpolation": 2}]}, "crop_y": {"Points": [{"co": {"X": 1.0, "Y": 0.0}, "interpolation": 2}]}, "reader": {"pixel_format": 0, "audio_timebase": {"den": 48000, "num": 1}, "has_audio": true, "channel_layout": 3, "type": "FFmpegReader", "path": "C:/Users/Daniel/Downloads/VID_20171128_201205317.mp4", "display_ratio": {"den": 9, "num": 16}, "interlaced_frame": false, "fps": {"den": 51651, "num": 1550000}, "has_video": true, "has_single_image": false, "audio_bit_rate": 128370, "pixel_ratio": {"den": 1, "num": 1}, "video_stream_index": 0, "channels": 2, "video_length": "310", "video_bit_rate": 10532809, "vcodec": "h264", "acodec": "aac", "audio_stream_index": 1, "video_timebase": {"den": 90000, "num": 1}, "file_size": "13579425", "height": 720, "top_field_first": true, "sample_rate": 48000, "width": 1280, "duration": 10.23999977111816}, "location_y": {"Points": [{"co": {"X": 1.0, "Y": 0.0}, "interpolation": 2}]}, "title": "VID_20171128_201205317.mp4", "scale": 1, "channel_mapping": {"Points": [{"co": {"X": 1.0, "Y": -1.0}, "interpolation": 2}]}, "perspective_c1_x": {"Points": [{"co": {"X": 1.0, "Y": -1.0}, "interpolation": 2}]}, "scale_y": {"Points": [{"co": {"X": 1.0, "Y": 1.0}, "interpolation": 2}]}, "perspective_c2_y": {"Points": [{"co": {"X": 1.0, "Y": -1.0}, "interpolation": 2}]}, "alpha": {"Points": [{"co": {"X": 1.0, "Y": 1.0}, "interpolation": 2}]}, "position": 22.24, "scale_x": {"Points": [{"co": {"X": 1.0, "Y": 1.0}, "interpolation": 2}]}, "time": {"Points": [{"co": {"X": 1.0, "Y": 1.0}, "interpolation": 2}]}, "shear_x": {"Points": [{"co": {"X": 1.0, "Y": 0.0}, "interpolation": 2}]}, "end": 0.9663735483870968, "channel_filter": {"Points": [{"co": {"X": 1.0, "Y": -1.0}, "interpolation": 2}]}, "gravity": 4, "has_video": {"Points": [{"co": {"X": 1.0, "Y": -1.0}, "interpolation": 2}]}, "effects": [], "layer": 3, "rotation": {"Points": [{"co": {"X": 1.0, "Y": 0.0}, "interpolation": 2}]}, "perspective_c3_x": {"Points": [{"co": {"X": 1.0, "Y": -1.0}, "interpolation": 2}]}, "location_x": {"Points": [{"co": {"X": 1.0, "Y": 0.0}, "interpolation": 2}]}, "start": 0, "wave_color": {"red": {"Points": [{"handle_right": {"X": 0.5, "Y": 0.0}, "co": {"X": 1.0, "Y": 0.0}, "handle_type": 0, "handle_left": {"X": 0.5, "Y": 1.0}, "interpolation": 0}]}, "alpha": {"Points": [{"handle_right": {"X": 0.5, "Y": 0.0}, "co": {"X": 1.0, "Y": 255.0}, "handle_type": 0, "handle_left": {"X": 0.5, "Y": 1.0}, "interpolation": 0}]}, "green": {"Points": [{"handle_right": {"X": 0.5, "Y": 0.0}, "co": {"X": 1.0, "Y": 123.0}, "handle_type": 0, "handle_left": {"X": 0.5, "Y": 1.0}, "interpolation": 0}]}, "blue": {"Points": [{"handle_right": {"X": 0.5, "Y": 0.0}, "co": {"X": 1.0, "Y": 255.0}, "handle_type": 0, "handle_left": {"X": 0.5, "Y": 1.0}, "interpolation": 0}]}}, "anchor": 0, "crop_width": {"Points": [{"co": {"X": 1.0, "Y": -1.0}, "interpolation": 2}]}, "volume": {"Points": [{"co": {"X": 1.0, "Y": 1.0}, "interpolation": 2}]}, "crop_height": {"Points": [{"co": {"X": 1.0, "Y": -1.0}, "interpolation": 2}]}, "id": "13HBAT3JZF", "file_id": "URZ1630Z17", "has_audio": {"Points": [{"co": {"X": 1.0, "Y": -1.0}, "interpolation": 2}]}, "perspective_c1_y": {"Points": [{"co": {"X": 1.0, "Y": -1.0}, "interpolation": 2}]}, "crop_x": {"Points": [{"co": {"X": 1.0, "Y": 0.0}, "interpolation": 2}]}, "image": "C:\\Users\\Daniel\\.openshot_qt\\thumbnail\\URZ1630Z17.png", "waveform": false, "shear_y": {"Points": [{"co": {"X": 1.0, "Y": 0.0}, "interpolation": 2}]}, "perspective_c2_x": {"Points": [{"co": {"X": 1.0, "Y": -1.0}, "interpolation": 2}]}, "duration": 10.23999977111816, "display": 0, "perspective_c4_x": {"Points": [{"co": {"X": 1.0, "Y": -1.0}, "interpolation": 2}]}, "perspective_c3_y": {"Points": [{"co": {"X": 1.0, "Y": -1.0}, "interpolation": 2}]}}, "type": "update", "key": ["clips", {"id": "13HBAT3JZF"}], "value": {"id": "13HBAT3JZF", "position": 22.4, "layer": 3, "start": 0.16, "image": "C:\\Users\\Daniel\\.openshot_qt\\thumbnail\\13HBAT3JZF-6.png", "end": 0.9663735483870968}, "partial": false}, {"old_values": {"perspective_c4_y": {"Points": [{"co": {"X": 1.0, "Y": -1.0}, "interpolation": 2}]}, "crop_y": {"Points": [{"co": {"X": 1.0, "Y": 0.0}, "interpolation": 2}]}, "reader": {"pixel_format": 0, "audio_timebase": {"den": 48000, "num": 1}, "has_audio": true, "channel_layout": 3, "type": "FFmpegReader", "path": "C:/Users/Daniel/Downloads/VID_20171128_201205317.mp4", "display_ratio": {"den": 9, "num": 16}, "interlaced_frame": false, "fps": {"den": 51651, "num": 1550000}, "has_video": true, "has_single_image": false, "audio_bit_rate": 128370, "pixel_ratio": {"den": 1, "num": 1}, "video_stream_index": 0, "channels": 2, "video_length": "310", "video_bit_rate": 10532809, "vcodec": "h264", "acodec": "aac", "audio_stream_index": 1, "video_timebase": {"den": 90000, "num": 1}, "file_size": "13579425", "height": 720, "top_field_first": true, "sample_rate": 48000, "width": 1280, "duration": 10.23999977111816}, "location_y": {"Points": [{"co": {"X": 1.0, "Y": 0.0}, "interpolation": 2}]}, "title": "VID_20171128_201205317.mp4", "scale": 1, "channel_mapping": {"Points": [{"co": {"X": 1.0, "Y": -1.0}, "interpolation": 2}]}, "perspective_c1_x": {"Points": [{"co": {"X": 1.0, "Y": -1.0}, "interpolation": 2}]}, "scale_y": {"Points": [{"co": {"X": 1.0, "Y": 1.0}, "interpolation": 2}]}, "perspective_c2_y": {"Points": [{"co": {"X": 1.0, "Y": -1.0}, "interpolation": 2}]}, "alpha": {"Points": [{"co": {"X": 1.0, "Y": 1.0}, "interpolation": 2}]}, "position": 22.4, "scale_x": {"Points": [{"co": {"X": 1.0, "Y": 1.0}, "interpolation": 2}]}, "time": {"Points": [{"co": {"X": 1.0, "Y": 1.0}, "interpolation": 2}]}, "shear_x": {"Points": [{"co": {"X": 1.0, "Y": 0.0}, "interpolation": 2}]}, "end": 0.9663735483870968, "channel_filter": {"Points": [{"co": {"X": 1.0, "Y": -1.0}, "interpolation": 2}]}, "gravity": 4, "has_video": {"Points": [{"co": {"X": 1.0, "Y": -1.0}, "interpolation": 2}]}, "effects": [], "layer": 3, "rotation": {"Points": [{"co": {"X": 1.0, "Y": 0.0}, "interpolation": 2}]}, "perspective_c3_x": {"Points": [{"co": {"X": 1.0, "Y": -1.0}, "interpolation": 2}]}, "location_x": {"Points": [{"co": {"X": 1.0, "Y": 0.0}, "interpolation": 2}]}, "start": 0.16, "wave_color": {"red": {"Points": [{"handle_right": {"X": 0.5, "Y": 0.0}, "co": {"X": 1.0, "Y": 0.0}, "handle_type": 0, "handle_left": {"X": 0.5, "Y": 1.0}, "interpolation": 0}]}, "alpha": {"Points": [{"handle_right": {"X": 0.5, "Y": 0.0}, "co": {"X": 1.0, "Y": 255.0}, "handle_type": 0, "handle_left": {"X": 0.5, "Y": 1.0}, "interpolation": 0}]}, "green": {"Points": [{"handle_right": {"X": 0.5, "Y": 0.0}, "co": {"X": 1.0, "Y": 123.0}, "handle_type": 0, "handle_left": {"X": 0.5, "Y": 1.0}, "interpolation": 0}]}, "blue": {"Points": [{"handle_right": {"X": 0.5, "Y": 0.0}, "co": {"X": 1.0, "Y": 255.0}, "handle_type": 0, "handle_left": {"X": 0.5, "Y": 1.0}, "interpolation": 0}]}}, "anchor": 0, "crop_width": {"Points": [{"co": {"X": 1.0, "Y": -1.0}, "interpolation": 2}]}, "volume": {"Points": [{"co": {"X": 1.0, "Y": 1.0}, "interpolation": 2}]}, "crop_height": {"Points": [{"co": {"X": 1.0, "Y": -1.0}, "interpolation": 2}]}, "id": "13HBAT3JZF", "file_id": "URZ1630Z17", "has_audio": {"Points": [{"co": {"X": 1.0, "Y": -1.0}, "interpolation": 2}]}, "perspective_c1_y": {"Points": [{"co": {"X": 1.0, "Y": -1.0}, "interpolation": 2}]}, "crop_x": {"Points": [{"co": {"X": 1.0, "Y": 0.0}, "interpolation": 2}]}, "image": "C:\\Users\\Daniel\\.openshot_qt\\thumbnail\\13HBAT3JZF-6.png", "waveform": false, "shear_y": {"Points": [{"co": {"X": 1.0, "Y": 0.0}, "interpolation": 2}]}, "perspective_c2_x": {"Points": [{"co": {"X": 1.0, "Y": -1.0}, "interpolation": 2}]}, "duration": 10.23999977111816, "display": 0, "perspective_c4_x": {"Points": [{"co": {"X": 1.0, "Y": -1.0}, "interpolation": 2}]}, "perspective_c3_y": {"Points": [{"co": {"X": 1.0, "Y": -1.0}, "interpolation": 2}]}}, "type": "delete", "key": ["clips", {"id": "13HBAT3JZF"}], "value": null, "partial": false}, {"old_values": [], "type": "insert", "key": ["clips"], "value": {"perspective_c4_y": {"Points": [{"co": {"Y": -1.0, "X": 1.0}, "interpolation": 2}]}, "crop_y": {"Points": [{"co": {"Y": 0.0, "X": 1.0}, "interpolation": 2}]}, "reader": {"pixel_format": 0, "audio_timebase": {"den": 48000, "num": 1}, "has_audio": true, "channel_layout": 3, "type": "FFmpegReader", "path": "C:/Users/Daniel/Downloads/VID_20171128_201205317.mp4", "display_ratio": {"den": 9, "num": 16}, "interlaced_frame": false, "fps": {"den": 51651, "num": 1550000}, "has_video": true, "has_single_image": false, "audio_bit_rate": 128370, "pixel_ratio": {"den": 1, "num": 1}, "video_stream_index": 0, "channels": 2, "video_length": "310", "video_bit_rate": 10532809, "vcodec": "h264", "acodec": "aac", "audio_stream_index": 1, "video_timebase": {"den": 90000, "num": 1}, "file_size": "13579425", "height": 720, "top_field_first": true, "sample_rate": 48000, "width": 1280, "duration": 10.23999977111816}, "location_y": {"Points": [{"co": {"Y": 0.0, "X": 1.0}, "interpolation": 2}]}, "title": "VID_20171128_201205317.mp4", "scale": 1, "channel_mapping": {"Points": [{"co": {"Y": -1.0, "X": 1.0}, "interpolation": 2}]}, "perspective_c1_x": {"Points": [{"co": {"Y": -1.0, "X": 1.0}, "interpolation": 2}]}, "scale_y": {"Points": [{"co": {"Y": 1.0, "X": 1.0}, "interpolation": 2}]}, "time": {"Points": [{"co": {"Y": 1.0, "X": 1.0}, "interpolation": 2}]}, "perspective_c2_y": {"Points": [{"co": {"Y": -1.0, "X": 1.0}, "interpolation": 2}]}, "alpha": {"Points": [{"co": {"Y": 1.0, "X": 1.0}, "interpolation": 2}]}, "position": 0, "perspective_c3_x": {"Points": [{"co": {"Y": -1.0, "X": 1.0}, "interpolation": 2}]}, "shear_y": {"Points": [{"co": {"Y": 0.0, "X": 1.0}, "interpolation": 2}]}, "end": 0.9663735483870968, "channel_filter": {"Points": [{"co": {"Y": -1.0, "X": 1.0}, "interpolation": 2}]}, "gravity": 4, "volume": {"Points": [{"co": {"Y": 1.0, "X": 1.0}, "interpolation": 2}]}, "has_video": {"Points": [{"co": {"Y": -1.0, "X": 1.0}, "interpolation": 2}]}, "effects": [], "location_x": {"Points": [{"co": {"Y": 0.0, "X": 1.0}, "interpolation": 2}]}, "id": "8JHJENGBUD", "scale_x": {"Points": [{"co": {"Y": 1.0, "X": 1.0}, "interpolation": 2}]}, "layer": 3, "start": 0, "wave_color": {"red": {"Points": [{"handle_right": {"Y": 0.0, "X": 0.5}, "co": {"Y": 0.0, "X": 1.0}, "handle_type": 0, "handle_left": {"Y": 1.0, "X": 0.5}, "interpolation": 0}]}, "alpha": {"Points": [{"handle_right": {"Y": 0.0, "X": 0.5}, "co": {"Y": 255.0, "X": 1.0}, "handle_type": 0, "handle_left": {"Y": 1.0, "X": 0.5}, "interpolation": 0}]}, "green": {"Points": [{"handle_right": {"Y": 0.0, "X": 0.5}, "co": {"Y": 123.0, "X": 1.0}, "handle_type": 0, "handle_left": {"Y": 1.0, "X": 0.5}, "interpolation": 0}]}, "blue": {"Points": [{"handle_right": {"Y": 0.0, "X": 0.5}, "co": {"Y": 255.0, "X": 1.0}, "handle_type": 0, "handle_left": {"Y": 1.0, "X": 0.5}, "interpolation": 0}]}}, "anchor": 0, "crop_width": {"Points": [{"co": {"Y": -1.0, "X": 1.0}, "interpolation": 2}]}, "shear_x": {"Points": [{"co": {"Y": 0.0, "X": 1.0}, "interpolation": 2}]}, "crop_height": {"Points": [{"co": {"Y": -1.0, "X": 1.0}, "interpolation": 2}]}, "rotation": {"Points": [{"co": {"Y": 0.0, "X": 1.0}, "interpolation": 2}]}, "file_id": "URZ1630Z17", "has_audio": {"Points": [{"co": {"Y": -1.0, "X": 1.0}, "interpolation": 2}]}, "crop_x": {"Points": [{"co": {"Y": 0.0, "X": 1.0}, "interpolation": 2}]}, "image": "C:\\Users\\Daniel\\.openshot_qt\\thumbnail\\URZ1630Z17.png", "waveform": false, "perspective_c1_y": {"Points": [{"co": {"Y": -1.0, "X": 1.0}, "interpolation": 2}]}, "perspective_c2_x": {"Points": [{"co": {"Y": -1.0, "X": 1.0}, "interpolation": 2}]}, "perspective_c3_y": {"Points": [{"co": {"Y": -1.0, "X": 1.0}, "interpolation": 2}]}, "display": 0, "perspective_c4_x": {"Points": [{"co": {"Y": -1.0, "X": 1.0}, "interpolation": 2}]}, "duration": 10.23999977111816}, "partial": false}, {"old_values": {"perspective_c4_y": {"Points": [{"co": {"X": 1.0, "Y": -1.0}, "interpolation": 2}]}, "crop_y": {"Points": [{"co": {"X": 1.0, "Y": 0.0}, "interpolation": 2}]}, "reader": {"pixel_format": 0, "audio_timebase": {"den": 48000, "num": 1}, "has_audio": true, "channel_layout": 3, "type": "FFmpegReader", "path": "C:/Users/Daniel/Downloads/VID_20171128_201205317.mp4", "display_ratio": {"den": 9, "num": 16}, "interlaced_frame": false, "fps": {"den": 51651, "num": 1550000}, "has_video": true, "has_single_image": false, "audio_bit_rate": 128370, "pixel_ratio": {"den": 1, "num": 1}, "video_stream_index": 0, "channels": 2, "video_length": "310", "video_bit_rate": 10532809, "vcodec": "h264", "acodec": "aac", "audio_stream_index": 1, "video_timebase": {"den": 90000, "num": 1}, "file_size": "13579425", "height": 720, "top_field_first": true, "sample_rate": 48000, "width": 1280, "duration": 10.23999977111816}, "location_y": {"Points": [{"co": {"X": 1.0, "Y": 0.0}, "interpolation": 2}]}, "waveform": false, "has_audio": {"Points": [{"co": {"X": 1.0, "Y": -1.0}, "interpolation": 2}]}, "scale": 1, "channel_mapping": {"Points": [{"co": {"X": 1.0, "Y": -1.0}, "interpolation": 2}]}, "perspective_c1_x": {"Points": [{"co": {"X": 1.0, "Y": -1.0}, "interpolation": 2}]}, "scale_y": {"Points": [{"co": {"X": 1.0, "Y": 1.0}, "interpolation": 2}]}, "time": {"Points": [{"co": {"X": 1.0, "Y": 1.0}, "interpolation": 2}]}, "perspective_c2_y": {"Points": [{"co": {"X": 1.0, "Y": -1.0}, "interpolation": 2}]}, "alpha": {"Points": [{"co": {"X": 1.0, "Y": 1.0}, "interpolation": 2}]}, "position": 0.0, "perspective_c3_x": {"Points": [{"co": {"X": 1.0, "Y": -1.0}, "interpolation": 2}]}, "shear_y": {"Points": [{"co": {"X": 1.0, "Y": 0.0}, "interpolation": 2}]}, "end": 0.9663735483870968, "channel_filter": {"Points": [{"co": {"X": 1.0, "Y": -1.0}, "interpolation": 2}]}, "gravity": 4, "has_video": {"Points": [{"co": {"X": 1.0, "Y": -1.0}, "interpolation": 2}]}, "effects": [], "layer": 4, "id": "8JHJENGBUD", "scale_x": {"Points": [{"co": {"X": 1.0, "Y": 1.0}, "interpolation": 2}]}, "location_x": {"Points": [{"co": {"X": 1.0, "Y": 0.0}, "interpolation": 2}]}, "start": 0.0, "wave_color": {"red": {"Points": [{"handle_right": {"X": 0.5, "Y": 0.0}, "co": {"X": 1.0, "Y": 0.0}, "handle_type": 0, "handle_left": {"X": 0.5, "Y": 1.0}, "interpolation": 0}]}, "alpha": {"Points": [{"handle_right": {"X": 0.5, "Y": 0.0}, "co": {"X": 1.0, "Y": 255.0}, "handle_type": 0, "handle_left": {"X": 0.5, "Y": 1.0}, "interpolation": 0}]}, "green": {"Points": [{"handle_right": {"X": 0.5, "Y": 0.0}, "co": {"X": 1.0, "Y": 123.0}, "handle_type": 0, "handle_left": {"X": 0.5, "Y": 1.0}, "interpolation": 0}]}, "blue": {"Points": [{"handle_right": {"X": 0.5, "Y": 0.0}, "co": {"X": 1.0, "Y": 255.0}, "handle_type": 0, "handle_left": {"X": 0.5, "Y": 1.0}, "interpolation": 0}]}}, "anchor": 0, "crop_width": {"Points": [{"co": {"X": 1.0, "Y": -1.0}, "interpolation": 2}]}, "shear_x": {"Points": [{"co": {"X": 1.0, "Y": 0.0}, "interpolation": 2}]}, "crop_height": {"Points": [{"co": {"X": 1.0, "Y": -1.0}, "interpolation": 2}]}, "rotation": {"Points": [{"co": {"X": 1.0, "Y": 0.0}, "interpolation": 2}]}, "file_id": "URZ1630Z17", "crop_x": {"Points": [{"co": {"X": 1.0, "Y": 0.0}, "interpolation": 2}]}, "title": "VID_20171128_201205317.mp4", "image": "C:\\Users\\Daniel\\.openshot_qt\\thumbnail\\URZ1630Z17.png", "volume": {"Points": [{"co": {"X": 1.0, "Y": 1.0}, "interpolation": 2}]}, "perspective_c1_y": {"Points": [{"co": {"X": 1.0, "Y": -1.0}, "interpolation": 2}]}, "perspective_c2_x": {"Points": [{"co": {"X": 1.0, "Y": -1.0}, "interpolation": 2}]}, "duration": 10.23999977111816, "display": 0, "perspective_c4_x": {"Points": [{"co": {"X": 1.0, "Y": -1.0}, "interpolation": 2}]}, "perspective_c3_y": {"Points": [{"co": {"X": 1.0, "Y": -1.0}, "interpolation": 2}]}}, "type": "update", "key": ["clips", {"id": "8JHJENGBUD"}], "value": {"id": "8JHJENGBUD", "position": 0, "layer": 3, "start": 0, "image": "C:\\Users\\Daniel\\.openshot_qt\\thumbnail\\URZ1630Z17.png", "end": 0.9663735483870968}, "partial": false}, {"old_values": [{"pixel_format": 0, "audio_timebase": {"den": 48000, "num": 1}, "has_audio": true, "channel_layout": 3, "type": "FFmpegReader", "path": "C:/Users/Daniel/Downloads/VID_20171128_201205317.mp4", "display_ratio": {"den": 9, "num": 16}, "interlaced_frame": false, "fps": {"den": 51651, "num": 1550000}, "has_video": true, "has_single_image": false, "audio_bit_rate": 128370, "pixel_ratio": {"den": 1, "num": 1}, "video_stream_index": 0, "channels": 2, "video_length": "310", "video_bit_rate": 10532809, "vcodec": "h264", "id": "AOO24NL6LZ", "acodec": "aac", "media_type": "video", "audio_stream_index": 1, "video_timebase": {"den": 90000, "num": 1}, "file_size": "13579425", "height": 720, "top_field_first": true, "sample_rate": 48000, "width": 1280, "duration": 10.23999977111816}, {"pixel_format": 0, "audio_timebase": {"den": 48000, "num": 1}, "has_audio": true, "channel_layout": 3, "type": "FFmpegReader", "path": "C:/Users/Daniel/Downloads/VID_20171128_201205317.mp4", "display_ratio": {"den": 9, "num": 16}, "interlaced_frame": false, "end": 0.9663735483870968, "fps": {"den": 51651, "num": 1550000}, "has_video": true, "has_single_image": false, "audio_bit_rate": 128370, "pixel_ratio": {"den": 1, "num": 1}, "video_stream_index": 0, "start": 0.0, "channels": 2, "video_length": "310", "video_bit_rate": 10532809, "vcodec": "h264", "id": "URZ1630Z17", "acodec": "aac", "media_type": "video", "audio_stream_index": 1, "video_timebase": {"den": 90000, "num": 1}, "file_size": "13579425", "height": 720, "top_field_first": true, "sample_rate": 48000, "width": 1280, "duration": 10.23999977111816}], "type": "insert", "key": ["files"], "value": {"pixel_format": 0, "audio_timebase": {"den": 48000, "num": 1}, "has_audio": true, "channel_layout": 3, "type": "FFmpegReader", "path": "C:\\Users\\Daniel\\Downloads\\VID_20171128_201205317.mp4", "display_ratio": {"den": 9, "num": 16}, "interlaced_frame": false, "end": 1.9660703225806453, "fps": {"den": 51651, "num": 1550000}, "has_video": true, "has_single_image": false, "audio_bit_rate": 128370, "pixel_ratio": {"den": 1, "num": 1}, "video_stream_index": 0, "name": "Clip", "start": 0.0, "channels": 2, "video_length": "310", "video_bit_rate": 10532809, "vcodec": "h264", "id": "D42H60PHON", "acodec": "aac", "media_type": "video", "audio_stream_index": 1, "video_timebase": {"den": 90000, "num": 1}, "file_size": "13579425", "height": 720, "top_field_first": true, "sample_rate": 48000, "width": 1280, "duration": 10.23999977111816}, "partial": false}, {"old_values": [{"perspective_c4_y": {"Points": [{"co": {"X": 1.0, "Y": -1.0}, "interpolation": 2}]}, "crop_y": {"Points": [{"co": {"X": 1.0, "Y": 0.0}, "interpolation": 2}]}, "reader": {"pixel_format": 0, "audio_timebase": {"den": 48000, "num": 1}, "has_audio": true, "channel_layout": 3, "type": "FFmpegReader", "path": "C:/Users/Daniel/Downloads/VID_20171128_201205317.mp4", "display_ratio": {"den": 9, "num": 16}, "interlaced_frame": false, "fps": {"den": 51651, "num": 1550000}, "has_video": true, "has_single_image": false, "audio_bit_rate": 128370, "pixel_ratio": {"den": 1, "num": 1}, "video_stream_index": 0, "channels": 2, "video_length": "310", "video_bit_rate": 10532809, "vcodec": "h264", "acodec": "aac", "audio_stream_index": 1, "video_timebase": {"den": 90000, "num": 1}, "file_size": "13579425", "height": 720, "top_field_first": true, "sample_rate": 48000, "width": 1280, "duration": 10.23999977111816}, "location_y": {"Points": [{"co": {"X": 1.0, "Y": 0.0}, "interpolation": 2}]}, "title": "VID_20171128_201205317.mp4", "scale": 1, "channel_mapping": {"Points": [{"co": {"X": 1.0, "Y": -1.0}, "interpolation": 2}]}, "perspective_c1_x": {"Points": [{"co": {"X": 1.0, "Y": -1.0}, "interpolation": 2}]}, "scale_y": {"Points": [{"co": {"X": 1.0, "Y": 1.0}, "interpolation": 2}]}, "perspective_c2_y": {"Points": [{"co": {"X": 1.0, "Y": -1.0}, "interpolation": 2}]}, "alpha": {"Points": [{"co": {"X": 1.0, "Y": 1.0}, "interpolation": 2}]}, "position": 0, "scale_x": {"Points": [{"co": {"X": 1.0, "Y": 1.0}, "interpolation": 2}]}, "time": {"Points": [{"co": {"X": 1.0, "Y": 1.0}, "interpolation": 2}]}, "shear_x": {"Points": [{"co": {"X": 1.0, "Y": 0.0}, "interpolation": 2}]}, "end": 0.9663735483870968, "channel_filter": {"Points": [{"co": {"X": 1.0, "Y": -1.0}, "interpolation": 2}]}, "gravity": 4, "has_video": {"Points": [{"co": {"X": 1.0, "Y": -1.0}, "interpolation": 2}]}, "effects": [], "layer": 3, "rotation": {"Points": [{"co": {"X": 1.0, "Y": 0.0}, "interpolation": 2}]}, "perspective_c3_x": {"Points": [{"co": {"X": 1.0, "Y": -1.0}, "interpolation": 2}]}, "location_x": {"Points": [{"co": {"X": 1.0, "Y": 0.0}, "interpolation": 2}]}, "start": 0, "wave_color": {"red": {"Points": [{"handle_right": {"X": 0.5, "Y": 0.0}, "co": {"X": 1.0, "Y": 0.0}, "handle_type": 0, "handle_left": {"X": 0.5, "Y": 1.0}, "interpolation": 0}]}, "alpha": {"Points": [{"handle_right": {"X": 0.5, "Y": 0.0}, "co": {"X": 1.0, "Y": 255.0}, "handle_type": 0, "handle_left": {"X": 0.5, "Y": 1.0}, "interpolation": 0}]}, "green": {"Points": [{"handle_right": {"X": 0.5, "Y": 0.0}, "co": {"X": 1.0, "Y": 123.0}, "handle_type": 0, "handle_left": {"X": 0.5, "Y": 1.0}, "interpolation": 0}]}, "blue": {"Points": [{"handle_right": {"X": 0.5, "Y": 0.0}, "co": {"X": 1.0, "Y": 255.0}, "handle_type": 0, "handle_left": {"X": 0.5, "Y": 1.0}, "interpolation": 0}]}}, "anchor": 0, "crop_width": {"Points": [{"co": {"X": 1.0, "Y": -1.0}, "interpolation": 2}]}, "volume": {"Points": [{"co": {"X": 1.0, "Y": 1.0}, "interpolation": 2}]}, "crop_height": {"Points": [{"co": {"X": 1.0, "Y": -1.0}, "interpolation": 2}]}, "id": "8JHJENGBUD", "file_id": "URZ1630Z17", "has_audio": {"Points": [{"co": {"X": 1.0, "Y": -1.0}, "interpolation": 2}]}, "perspective_c1_y": {"Points": [{"co": {"X": 1.0, "Y": -1.0}, "interpolation": 2}]}, "crop_x": {"Points": [{"co": {"X": 1.0, "Y": 0.0}, "interpolation": 2}]}, "image": "C:\\Users\\Daniel\\.openshot_qt\\thumbnail\\URZ1630Z17.png", "waveform": false, "shear_y": {"Points": [{"co": {"X": 1.0, "Y": 0.0}, "interpolation": 2}]}, "perspective_c2_x": {"Points": [{"co": {"X": 1.0, "Y": -1.0}, "interpolation": 2}]}, "duration": 10.23999977111816, "display": 0, "perspective_c4_x": {"Points": [{"co": {"X": 1.0, "Y": -1.0}, "interpolation": 2}]}, "perspective_c3_y": {"Points": [{"co": {"X": 1.0, "Y": -1.0}, "interpolation": 2}]}}], "type": "insert", "key": ["clips"], "value": {"perspective_c4_y": {"Points": [{"co": {"Y": -1.0, "X": 1.0}, "interpolation": 2}]}, "crop_y": {"Points": [{"co": {"Y": 0.0, "X": 1.0}, "interpolation": 2}]}, "reader": {"pixel_format": 0, "audio_timebase": {"den": 48000, "num": 1}, "has_audio": true, "channel_layout": 3, "type": "FFmpegReader", "path": "C:/Users/Daniel/Downloads/VID_20171128_201205317.mp4", "display_ratio": {"den": 9, "num": 16}, "interlaced_frame": false, "fps": {"den": 51651, "num": 1550000}, "has_video": true, "has_single_image": false, "audio_bit_rate": 128370, "pixel_ratio": {"den": 1, "num": 1}, "video_stream_index": 0, "channels": 2, "video_length": "310", "video_bit_rate": 10532809, "vcodec": "h264", "acodec": "aac", "audio_stream_index": 1, "video_timebase": {"den": 90000, "num": 1}, "file_size": "13579425", "height": 720, "top_field_first": true, "sample_rate": 48000, "width": 1280, "duration": 10.23999977111816}, "location_y": {"Points": [{"co": {"Y": 0.0, "X": 1.0}, "interpolation": 2}]}, "title": "VID_20171128_201205317.mp4", "scale": 1, "channel_mapping": {"Points": [{"co": {"Y": -1.0, "X": 1.0}, "interpolation": 2}]}, "perspective_c1_x": {"Points": [{"co": {"Y": -1.0, "X": 1.0}, "interpolation": 2}]}, "scale_y": {"Points": [{"co": {"Y": 1.0, "X": 1.0}, "interpolation": 2}]}, "time": {"Points": [{"co": {"Y": 1.0, "X": 1.0}, "interpolation": 2}]}, "perspective_c2_y": {"Points": [{"co": {"Y": -1.0, "X": 1.0}, "interpolation": 2}]}, "alpha": {"Points": [{"co": {"Y": 1.0, "X": 1.0}, "interpolation": 2}]}, "position": 8.96, "perspective_c3_x": {"Points": [{"co": {"Y": -1.0, "X": 1.0}, "interpolation": 2}]}, "shear_y": {"Points": [{"co": {"Y": 0.0, "X": 1.0}, "interpolation": 2}]}, "end": 1.9660703225806453, "channel_filter": {"Points": [{"co": {"Y": -1.0, "X": 1.0}, "interpolation": 2}]}, "gravity": 4, "volume": {"Points": [{"co": {"Y": 1.0, "X": 1.0}, "interpolation": 2}]}, "has_video": {"Points": [{"co": {"Y": -1.0, "X": 1.0}, "interpolation": 2}]}, "effects": [], "location_x": {"Points": [{"co": {"Y": 0.0, "X": 1.0}, "interpolation": 2}]}, "id": "VPP8SIEK01", "scale_x": {"Points": [{"co": {"Y": 1.0, "X": 1.0}, "interpolation": 2}]}, "layer": 3, "start": 0, "wave_color": {"red": {"Points": [{"handle_right": {"Y": 0.0, "X": 0.5}, "co": {"Y": 0.0, "X": 1.0}, "handle_type": 0, "handle_left": {"Y": 1.0, "X": 0.5}, "interpolation": 0}]}, "alpha": {"Points": [{"handle_right": {"Y": 0.0, "X": 0.5}, "co": {"Y": 255.0, "X": 1.0}, "handle_type": 0, "handle_left": {"Y": 1.0, "X": 0.5}, "interpolation": 0}]}, "green": {"Points": [{"handle_right": {"Y": 0.0, "X": 0.5}, "co": {"Y": 123.0, "X": 1.0}, "handle_type": 0, "handle_left": {"Y": 1.0, "X": 0.5}, "interpolation": 0}]}, "blue": {"Points": [{"handle_right": {"Y": 0.0, "X": 0.5}, "co": {"Y": 255.0, "X": 1.0}, "handle_type": 0, "handle_left": {"Y": 1.0, "X": 0.5}, "interpolation": 0}]}}, "anchor": 0, "crop_width": {"Points": [{"co": {"Y": -1.0, "X": 1.0}, "interpolation": 2}]}, "shear_x": {"Points": [{"co": {"Y": 0.0, "X": 1.0}, "interpolation": 2}]}, "crop_height": {"Points": [{"co": {"Y": -1.0, "X": 1.0}, "interpolation": 2}]}, "rotation": {"Points": [{"co": {"Y": 0.0, "X": 1.0}, "interpolation": 2}]}, "file_id": "D42H60PHON", "has_audio": {"Points": [{"co": {"Y": -1.0, "X": 1.0}, "interpolation": 2}]}, "crop_x": {"Points": [{"co": {"Y": 0.0, "X": 1.0}, "interpolation": 2}]}, "image": "C:\\Users\\Daniel\\.openshot_qt\\thumbnail\\D42H60PHON.png", "waveform": false, "perspective_c1_y": {"Points": [{"co": {"Y": -1.0, "X": 1.0}, "interpolation": 2}]}, "perspective_c2_x": {"Points": [{"co": {"Y": -1.0, "X": 1.0}, "interpolation": 2}]}, "perspective_c3_y": {"Points": [{"co": {"Y": -1.0, "X": 1.0}, "interpolation": 2}]}, "display": 0, "perspective_c4_x": {"Points": [{"co": {"Y": -1.0, "X": 1.0}, "interpolation": 2}]}, "duration": 10.23999977111816}, "partial": false}, {"old_values": {"perspective_c4_y": {"Points": [{"co": {"X": 1.0, "Y": -1.0}, "interpolation": 2}]}, "crop_y": {"Points": [{"co": {"X": 1.0, "Y": 0.0}, "interpolation": 2}]}, "reader": {"pixel_format": 0, "audio_timebase": {"den": 48000, "num": 1}, "has_audio": true, "channel_layout": 3, "type": "FFmpegReader", "path": "C:/Users/Daniel/Downloads/VID_20171128_201205317.mp4", "display_ratio": {"den": 9, "num": 16}, "interlaced_frame": false, "fps": {"den": 51651, "num": 1550000}, "has_video": true, "has_single_image": false, "audio_bit_rate": 128370, "pixel_ratio": {"den": 1, "num": 1}, "video_stream_index": 0, "channels": 2, "video_length": "310", "video_bit_rate": 10532809, "vcodec": "h264", "acodec": "aac", "audio_stream_index": 1, "video_timebase": {"den": 90000, "num": 1}, "file_size": "13579425", "height": 720, "top_field_first": true, "sample_rate": 48000, "width": 1280, "duration": 10.23999977111816}, "location_y": {"Points": [{"co": {"X": 1.0, "Y": 0.0}, "interpolation": 2}]}, "waveform": false, "has_audio": {"Points": [{"co": {"X": 1.0, "Y": -1.0}, "interpolation": 2}]}, "scale": 1, "channel_mapping": {"Points": [{"co": {"X": 1.0, "Y": -1.0}, "interpolation": 2}]}, "perspective_c1_x": {"Points": [{"co": {"X": 1.0, "Y": -1.0}, "interpolation": 2}]}, "scale_y": {"Points": [{"co": {"X": 1.0, "Y": 1.0}, "interpolation": 2}]}, "time": {"Points": [{"co": {"X": 1.0, "Y": 1.0}, "interpolation": 2}]}, "perspective_c2_y": {"Points": [{"co": {"X": 1.0, "Y": -1.0}, "interpolation": 2}]}, "alpha": {"Points": [{"co": {"X": 1.0, "Y": 1.0}, "interpolation": 2}]}, "position": 4.64, "perspective_c3_x": {"Points": [{"co": {"X": 1.0, "Y": -1.0}, "interpolation": 2}]}, "shear_y": {"Points": [{"co": {"X": 1.0, "Y": 0.0}, "interpolation": 2}]}, "end": 1.9660703225806453, "channel_filter": {"Points": [{"co": {"X": 1.0, "Y": -1.0}, "interpolation": 2}]}, "gravity": 4, "has_video": {"Points": [{"co": {"X": 1.0, "Y": -1.0}, "interpolation": 2}]}, "effects": [], "layer": 4, "id": "VPP8SIEK01", "scale_x": {"Points": [{"co": {"X": 1.0, "Y": 1.0}, "interpolation": 2}]}, "location_x": {"Points": [{"co": {"X": 1.0, "Y": 0.0}, "interpolation": 2}]}, "start": 0.0, "wave_color": {"red": {"Points": [{"handle_right": {"X": 0.5, "Y": 0.0}, "co": {"X": 1.0, "Y": 0.0}, "handle_type": 0, "handle_left": {"X": 0.5, "Y": 1.0}, "interpolation": 0}]}, "alpha": {"Points": [{"handle_right": {"X": 0.5, "Y": 0.0}, "co": {"X": 1.0, "Y": 255.0}, "handle_type": 0, "handle_left": {"X": 0.5, "Y": 1.0}, "interpolation": 0}]}, "green": {"Points": [{"handle_right": {"X": 0.5, "Y": 0.0}, "co": {"X": 1.0, "Y": 123.0}, "handle_type": 0, "handle_left": {"X": 0.5, "Y": 1.0}, "interpolation": 0}]}, "blue": {"Points": [{"handle_right": {"X": 0.5, "Y": 0.0}, "co": {"X": 1.0, "Y": 255.0}, "handle_type": 0, "handle_left": {"X": 0.5, "Y": 1.0}, "interpolation": 0}]}}, "anchor": 0, "crop_width": {"Points": [{"co": {"X": 1.0, "Y": -1.0}, "interpolation": 2}]}, "shear_x": {"Points": [{"co": {"X": 1.0, "Y": 0.0}, "interpolation": 2}]}, "crop_height": {"Points": [{"co": {"X": 1.0, "Y": -1.0}, "interpolation": 2}]}, "rotation": {"Points": [{"co": {"X": 1.0, "Y": 0.0}, "interpolation": 2}]}, "file_id": "D42H60PHON", "crop_x": {"Points": [{"co": {"X": 1.0, "Y": 0.0}, "interpolation": 2}]}, "title": "VID_20171128_201205317.mp4", "image": "C:\\Users\\Daniel\\.openshot_qt\\thumbnail\\D42H60PHON.png", "volume": {"Points": [{"co": {"X": 1.0, "Y": 1.0}, "interpolation": 2}]}, "perspective_c1_y": {"Points": [{"co": {"X": 1.0, "Y": -1.0}, "interpolation": 2}]}, "perspective_c2_x": {"Points": [{"co": {"X": 1.0, "Y": -1.0}, "interpolation": 2}]}, "duration": 10.23999977111816, "display": 0, "perspective_c4_x": {"Points": [{"co": {"X": 1.0, "Y": -1.0}, "interpolation": 2}]}, "perspective_c3_y": {"Points": [{"co": {"X": 1.0, "Y": -1.0}, "interpolation": 2}]}}, "type": "update", "key": ["clips", {"id": "VPP8SIEK01"}], "value": {"id": "VPP8SIEK01", "position": 8.96, "layer": 3, "start": 0, "image": "C:\\Users\\Daniel\\.openshot_qt\\thumbnail\\D42H60PHON.png", "end": 1.9660703225806453}, "partial": false}, {"old_values": {"perspective_c4_y": {"Points": [{"co": {"X": 1.0, "Y": -1.0}, "interpolation": 2}]}, "crop_y": {"Points": [{"co": {"X": 1.0, "Y": 0.0}, "interpolation": 2}]}, "reader": {"pixel_format": 0, "audio_timebase": {"den": 48000, "num": 1}, "has_audio": true, "channel_layout": 3, "type": "FFmpegReader", "path": "C:/Users/Daniel/Downloads/VID_20171128_201205317.mp4", "display_ratio": {"den": 9, "num": 16}, "interlaced_frame": false, "fps": {"den": 51651, "num": 1550000}, "has_video": true, "has_single_image": false, "audio_bit_rate": 128370, "pixel_ratio": {"den": 1, "num": 1}, "video_stream_index": 0, "channels": 2, "video_length": "310", "video_bit_rate": 10532809, "vcodec": "h264", "acodec": "aac", "audio_stream_index": 1, "video_timebase": {"den": 90000, "num": 1}, "file_size": "13579425", "height": 720, "top_field_first": true, "sample_rate": 48000, "width": 1280, "duration": 10.23999977111816}, "location_y": {"Points": [{"co": {"X": 1.0, "Y": 0.0}, "interpolation": 2}]}, "title": "VID_20171128_201205317.mp4", "scale": 1, "channel_mapping": {"Points": [{"co": {"X": 1.0, "Y": -1.0}, "interpolation": 2}]}, "perspective_c1_x": {"Points": [{"co": {"X": 1.0, "Y": -1.0}, "interpolation": 2}]}, "scale_y": {"Points": [{"co": {"X": 1.0, "Y": 1.0}, "interpolation": 2}]}, "perspective_c2_y": {"Points": [{"co": {"X": 1.0, "Y": -1.0}, "interpolation": 2}]}, "alpha": {"Points": [{"co": {"X": 1.0, "Y": 1.0}, "interpolation": 2}]}, "position": 8.96, "scale_x": {"Points": [{"co": {"X": 1.0, "Y": 1.0}, "interpolation": 2}]}, "time": {"Points": [{"co": {"X": 1.0, "Y": 1.0}, "interpolation": 2}]}, "shear_x": {"Points": [{"co": {"X": 1.0, "Y": 0.0}, "interpolation": 2}]}, "end": 1.9660703225806453, "channel_filter": {"Points": [{"co": {"X": 1.0, "Y": -1.0}, "interpolation": 2}]}, "gravity": 4, "has_video": {"Points": [{"co": {"X": 1.0, "Y": -1.0}, "interpolation": 2}]}, "effects": [], "layer": 3, "rotation": {"Points": [{"co": {"X": 1.0, "Y": 0.0}, "interpolation": 2}]}, "perspective_c3_x": {"Points": [{"co": {"X": 1.0, "Y": -1.0}, "interpolation": 2}]}, "location_x": {"Points": [{"co": {"X": 1.0, "Y": 0.0}, "interpolation": 2}]}, "start": 0, "wave_color": {"red": {"Points": [{"handle_right": {"X": 0.5, "Y": 0.0}, "co": {"X": 1.0, "Y": 0.0}, "handle_type": 0, "handle_left": {"X": 0.5, "Y": 1.0}, "interpolation": 0}]}, "alpha": {"Points": [{"handle_right": {"X": 0.5, "Y": 0.0}, "co": {"X": 1.0, "Y": 255.0}, "handle_type": 0, "handle_left": {"X": 0.5, "Y": 1.0}, "interpolation": 0}]}, "green": {"Points": [{"handle_right": {"X": 0.5, "Y": 0.0}, "co": {"X": 1.0, "Y": 123.0}, "handle_type": 0, "handle_left": {"X": 0.5, "Y": 1.0}, "interpolation": 0}]}, "blue": {"Points": [{"handle_right": {"X": 0.5, "Y": 0.0}, "co": {"X": 1.0, "Y": 255.0}, "handle_type": 0, "handle_left": {"X": 0.5, "Y": 1.0}, "interpolation": 0}]}}, "anchor": 0, "crop_width": {"Points": [{"co": {"X": 1.0, "Y": -1.0}, "interpolation": 2}]}, "volume": {"Points": [{"co": {"X": 1.0, "Y": 1.0}, "interpolation": 2}]}, "crop_height": {"Points": [{"co": {"X": 1.0, "Y": -1.0}, "interpolation": 2}]}, "id": "VPP8SIEK01", "file_id": "D42H60PHON", "has_audio": {"Points": [{"co": {"X": 1.0, "Y": -1.0}, "interpolation": 2}]}, "perspective_c1_y": {"Points": [{"co": {"X": 1.0, "Y": -1.0}, "interpolation": 2}]}, "crop_x": {"Points": [{"co": {"X": 1.0, "Y": 0.0}, "interpolation": 2}]}, "image": "C:\\Users\\Daniel\\.openshot_qt\\thumbnail\\D42H60PHON.png", "waveform": false, "shear_y": {"Points": [{"co": {"X": 1.0, "Y": 0.0}, "interpolation": 2}]}, "perspective_c2_x": {"Points": [{"co": {"X": 1.0, "Y": -1.0}, "interpolation": 2}]}, "duration": 10.23999977111816, "display": 0, "perspective_c4_x": {"Points": [{"co": {"X": 1.0, "Y": -1.0}, "interpolation": 2}]}, "perspective_c3_y": {"Points": [{"co": {"X": 1.0, "Y": -1.0}, "interpolation": 2}]}}, "type": "delete", "key": ["clips", {"id": "VPP8SIEK01"}], "value": null, "partial": false}, {"old_values": {"perspective_c4_y": {"Points": [{"co": {"X": 1.0, "Y": -1.0}, "interpolation": 2}]}, "crop_y": {"Points": [{"co": {"X": 1.0, "Y": 0.0}, "interpolation": 2}]}, "reader": {"pixel_format": 0, "audio_timebase": {"den": 48000, "num": 1}, "has_audio": true, "channel_layout": 3, "type": "FFmpegReader", "path": "C:/Users/Daniel/Downloads/VID_20171128_201205317.mp4", "display_ratio": {"den": 9, "num": 16}, "interlaced_frame": false, "fps": {"den": 51651, "num": 1550000}, "has_video": true, "has_single_image": false, "audio_bit_rate": 128370, "pixel_ratio": {"den": 1, "num": 1}, "video_stream_index": 0, "channels": 2, "video_length": "310", "video_bit_rate": 10532809, "vcodec": "h264", "acodec": "aac", "audio_stream_index": 1, "video_timebase": {"den": 90000, "num": 1}, "file_size": "13579425", "height": 720, "top_field_first": true, "sample_rate": 48000, "width": 1280, "duration": 10.23999977111816}, "location_y": {"Points": [{"co": {"X": 1.0, "Y": 0.0}, "interpolation": 2}]}, "title": "VID_20171128_201205317.mp4", "scale": 1, "channel_mapping": {"Points": [{"co": {"X": 1.0, "Y": -1.0}, "interpolation": 2}]}, "perspective_c1_x": {"Points": [{"co": {"X": 1.0, "Y": -1.0}, "interpolation": 2}]}, "scale_y": {"Points": [{"co": {"X": 1.0, "Y": 1.0}, "interpolation": 2}]}, "perspective_c2_y": {"Points": [{"co": {"X": 1.0, "Y": -1.0}, "interpolation": 2}]}, "alpha": {"Points": [{"co": {"X": 1.0, "Y": 1.0}, "interpolation": 2}]}, "position": 0, "scale_x": {"Points": [{"co": {"X": 1.0, "Y": 1.0}, "interpolation": 2}]}, "time": {"Points": [{"co": {"X": 1.0, "Y": 1.0}, "interpolation": 2}]}, "shear_x": {"Points": [{"co": {"X": 1.0, "Y": 0.0}, "interpolation": 2}]}, "end": 0.9663735483870968, "channel_filter": {"Points": [{"co": {"X": 1.0, "Y": -1.0}, "interpolation": 2}]}, "gravity": 4, "has_video": {"Points": [{"co": {"X": 1.0, "Y": -1.0}, "interpolation": 2}]}, "effects": [], "layer": 3, "rotation": {"Points": [{"co": {"X": 1.0, "Y": 0.0}, "interpolation": 2}]}, "perspective_c3_x": {"Points": [{"co": {"X": 1.0, "Y": -1.0}, "interpolation": 2}]}, "location_x": {"Points": [{"co": {"X": 1.0, "Y": 0.0}, "interpolation": 2}]}, "start": 0, "wave_color": {"red": {"Points": [{"handle_right": {"X": 0.5, "Y": 0.0}, "co": {"X": 1.0, "Y": 0.0}, "handle_type": 0, "handle_left": {"X": 0.5, "Y": 1.0}, "interpolation": 0}]}, "alpha": {"Points": [{"handle_right": {"X": 0.5, "Y": 0.0}, "co": {"X": 1.0, "Y": 255.0}, "handle_type": 0, "handle_left": {"X": 0.5, "Y": 1.0}, "interpolation": 0}]}, "green": {"Points": [{"handle_right": {"X": 0.5, "Y": 0.0}, "co": {"X": 1.0, "Y": 123.0}, "handle_type": 0, "handle_left": {"X": 0.5, "Y": 1.0}, "interpolation": 0}]}, "blue": {"Points": [{"handle_right": {"X": 0.5, "Y": 0.0}, "co": {"X": 1.0, "Y": 255.0}, "handle_type": 0, "handle_left": {"X": 0.5, "Y": 1.0}, "interpolation": 0}]}}, "anchor": 0, "crop_width": {"Points": [{"co": {"X": 1.0, "Y": -1.0}, "interpolation": 2}]}, "volume": {"Points": [{"co": {"X": 1.0, "Y": 1.0}, "interpolation": 2}]}, "crop_height": {"Points": [{"co": {"X": 1.0, "Y": -1.0}, "interpolation": 2}]}, "id": "8JHJENGBUD", "file_id": "URZ1630Z17", "has_audio": {"Points": [{"co": {"X": 1.0, "Y": -1.0}, "interpolation": 2}]}, "perspective_c1_y": {"Points": [{"co": {"X": 1.0, "Y": -1.0}, "interpolation": 2}]}, "crop_x": {"Points": [{"co": {"X": 1.0, "Y": 0.0}, "interpolation": 2}]}, "image": "C:\\Users\\Daniel\\.openshot_qt\\thumbnail\\URZ1630Z17.png", "waveform": false, "shear_y": {"Points": [{"co": {"X": 1.0, "Y": 0.0}, "interpolation": 2}]}, "perspective_c2_x": {"Points": [{"co": {"X": 1.0, "Y": -1.0}, "interpolation": 2}]}, "duration": 10.23999977111816, "display": 0, "perspective_c4_x": {"Points": [{"co": {"X": 1.0, "Y": -1.0}, "interpolation": 2}]}, "perspective_c3_y": {"Points": [{"co": {"X": 1.0, "Y": -1.0}, "interpolation": 2}]}}, "type": "delete", "key": ["clips", {"id": "8JHJENGBUD"}], "value": null, "partial": false}, {"old_values": [], "type": "insert", "key": ["clips"], "value": {"perspective_c4_y": {"Points": [{"co": {"Y": -1.0, "X": 1.0}, "interpolation": 2}]}, "crop_y": {"Points": [{"co": {"Y": 0.0, "X": 1.0}, "interpolation": 2}]}, "reader": {"pixel_format": 0, "audio_timebase": {"den": 48000, "num": 1}, "has_audio": true, "channel_layout": 3, "type": "FFmpegReader", "path": "C:/Users/Daniel/Downloads/VID_20171128_201205317.mp4", "display_ratio": {"den": 9, "num": 16}, "interlaced_frame": false, "fps": {"den": 51651, "num": 1550000}, "has_video": true, "has_single_image": false, "audio_bit_rate": 128370, "pixel_ratio": {"den": 1, "num": 1}, "video_stream_index": 0, "channels": 2, "video_length": "310", "video_bit_rate": 10532809, "vcodec": "h264", "acodec": "aac", "audio_stream_index": 1, "video_timebase": {"den": 90000, "num": 1}, "file_size": "13579425", "height": 720, "top_field_first": true, "sample_rate": 48000, "width": 1280, "duration": 10.23999977111816}, "location_y": {"Points": [{"co": {"Y": 0.0, "X": 1.0}, "interpolation": 2}]}, "title": "VID_20171128_201205317.mp4", "scale": 1, "channel_mapping": {"Points": [{"co": {"Y": -1.0, "X": 1.0}, "interpolation": 2}]}, "perspective_c1_x": {"Points": [{"co": {"Y": -1.0, "X": 1.0}, "interpolation": 2}]}, "scale_y": {"Points": [{"co": {"Y": 1.0, "X": 1.0}, "interpolation": 2}]}, "time": {"Points": [{"co": {"Y": 1.0, "X": 1.0}, "interpolation": 2}]}, "perspective_c2_y": {"Points": [{"co": {"Y": -1.0, "X": 1.0}, "interpolation": 2}]}, "alpha": {"Points": [{"co": {"Y": 1.0, "X": 1.0}, "interpolation": 2}]}, "position": 6.08, "perspective_c3_x": {"Points": [{"co": {"Y": -1.0, "X": 1.0}, "interpolation": 2}]}, "shear_y": {"Points": [{"co": {"Y": 0.0, "X": 1.0}, "interpolation": 2}]}, "end": 1.9660703225806453, "channel_filter": {"Points": [{"co": {"Y": -1.0, "X": 1.0}, "interpolation": 2}]}, "gravity": 4, "volume": {"Points": [{"co": {"Y": 1.0, "X": 1.0}, "interpolation": 2}]}, "has_video": {"Points": [{"co": {"Y": -1.0, "X": 1.0}, "interpolation": 2}]}, "effects": [], "location_x": {"Points": [{"co": {"Y": 0.0, "X": 1.0}, "interpolation": 2}]}, "id": "YRSKB3LHYN", "scale_x": {"Points": [{"co": {"Y": 1.0, "X": 1.0}, "interpolation": 2}]}, "layer": 4, "start": 0.0, "wave_color": {"red": {"Points": [{"handle_right": {"Y": 0.0, "X": 0.5}, "co": {"Y": 0.0, "X": 1.0}, "handle_type": 0, "handle_left": {"Y": 1.0, "X": 0.5}, "interpolation": 0}]}, "alpha": {"Points": [{"handle_right": {"Y": 0.0, "X": 0.5}, "co": {"Y": 255.0, "X": 1.0}, "handle_type": 0, "handle_left": {"Y": 1.0, "X": 0.5}, "interpolation": 0}]}, "green": {"Points": [{"handle_right": {"Y": 0.0, "X": 0.5}, "co": {"Y": 123.0, "X": 1.0}, "handle_type": 0, "handle_left": {"Y": 1.0, "X": 0.5}, "interpolation": 0}]}, "blue": {"Points": [{"handle_right": {"Y": 0.0, "X": 0.5}, "co": {"Y": 255.0, "X": 1.0}, "handle_type": 0, "handle_left": {"Y": 1.0, "X": 0.5}, "interpolation": 0}]}}, "anchor": 0, "crop_width": {"Points": [{"co": {"Y": -1.0, "X": 1.0}, "interpolation": 2}]}, "shear_x": {"Points": [{"co": {"Y": 0.0, "X": 1.0}, "interpolation": 2}]}, "crop_height": {"Points": [{"co": {"Y": -1.0, "X": 1.0}, "interpolation": 2}]}, "rotation": {"Points": [{"co": {"Y": 0.0, "X": 1.0}, "interpolation": 2}]}, "file_id": "D42H60PHON", "has_audio": {"Points": [{"co": {"Y": -1.0, "X": 1.0}, "interpolation": 2}]}, "crop_x": {"Points": [{"co": {"Y": 0.0, "X": 1.0}, "interpolation": 2}]}, "image": "C:\\Users\\Daniel\\.openshot_qt\\thumbnail\\D42H60PHON.png", "waveform": false, "perspective_c1_y": {"Points": [{"co": {"Y": -1.0, "X": 1.0}, "interpolation": 2}]}, "perspective_c2_x": {"Points": [{"co": {"Y": -1.0, "X": 1.0}, "interpolation": 2}]}, "perspective_c3_y": {"Points": [{"co": {"Y": -1.0, "X": 1.0}, "interpolation": 2}]}, "display": 0, "perspective_c4_x": {"Points": [{"co": {"Y": -1.0, "X": 1.0}, "interpolation": 2}]}, "duration": 10.23999977111816}, "partial": false}, {"old_values": {"perspective_c4_y": {"Points": [{"co": {"X": 1.0, "Y": -1.0}, "interpolation": 2}]}, "crop_y": {"Points": [{"co": {"X": 1.0, "Y": 0.0}, "interpolation": 2}]}, "reader": {"pixel_format": 0, "audio_timebase": {"den": 48000, "num": 1}, "has_audio": true, "channel_layout": 3, "type": "FFmpegReader", "path": "C:/Users/Daniel/Downloads/VID_20171128_201205317.mp4", "display_ratio": {"den": 9, "num": 16}, "interlaced_frame": false, "fps": {"den": 51651, "num": 1550000}, "has_video": true, "has_single_image": false, "audio_bit_rate": 128370, "pixel_ratio": {"den": 1, "num": 1}, "video_stream_index": 0, "channels": 2, "video_length": "310", "video_bit_rate": 10532809, "vcodec": "h264", "acodec": "aac", "audio_stream_index": 1, "video_timebase": {"den": 90000, "num": 1}, "file_size": "13579425", "height": 720, "top_field_first": true, "sample_rate": 48000, "width": 1280, "duration": 10.23999977111816}, "location_y": {"Points": [{"co": {"X": 1.0, "Y": 0.0}, "interpolation": 2}]}, "title": "VID_20171128_201205317.mp4", "scale": 1, "channel_mapping": {"Points": [{"co": {"X": 1.0, "Y": -1.0}, "interpolation": 2}]}, "perspective_c1_x": {"Points": [{"co": {"X": 1.0, "Y": -1.0}, "interpolation": 2}]}, "scale_y": {"Points": [{"co": {"X": 1.0, "Y": 1.0}, "interpolation": 2}]}, "perspective_c2_y": {"Points": [{"co": {"X": 1.0, "Y": -1.0}, "interpolation": 2}]}, "alpha": {"Points": [{"co": {"X": 1.0, "Y": 1.0}, "interpolation": 2}]}, "position": 6.08, "scale_x": {"Points": [{"co": {"X": 1.0, "Y": 1.0}, "interpolation": 2}]}, "time": {"Points": [{"co": {"X": 1.0, "Y": 1.0}, "interpolation": 2}]}, "shear_x": {"Points": [{"co": {"X": 1.0, "Y": 0.0}, "interpolation": 2}]}, "end": 1.9660703225806453, "channel_filter": {"Points": [{"co": {"X": 1.0, "Y": -1.0}, "interpolation": 2}]}, "gravity": 4, "has_video": {"Points": [{"co": {"X": 1.0, "Y": -1.0}, "interpolation": 2}]}, "effects": [], "layer": 4, "rotation": {"Points": [{"co": {"X": 1.0, "Y": 0.0}, "interpolation": 2}]}, "perspective_c3_x": {"Points": [{"co": {"X": 1.0, "Y": -1.0}, "interpolation": 2}]}, "location_x": {"Points": [{"co": {"X": 1.0, "Y": 0.0}, "interpolation": 2}]}, "start": 0.0, "wave_color": {"red": {"Points": [{"handle_right": {"X": 0.5, "Y": 0.0}, "co": {"X": 1.0, "Y": 0.0}, "handle_type": 0, "handle_left": {"X": 0.5, "Y": 1.0}, "interpolation": 0}]}, "alpha": {"Points": [{"handle_right": {"X": 0.5, "Y": 0.0}, "co": {"X": 1.0, "Y": 255.0}, "handle_type": 0, "handle_left": {"X": 0.5, "Y": 1.0}, "interpolation": 0}]}, "green": {"Points": [{"handle_right": {"X": 0.5, "Y": 0.0}, "co": {"X": 1.0, "Y": 123.0}, "handle_type": 0, "handle_left": {"X": 0.5, "Y": 1.0}, "interpolation": 0}]}, "blue": {"Points": [{"handle_right": {"X": 0.5, "Y": 0.0}, "co": {"X": 1.0, "Y": 255.0}, "handle_type": 0, "handle_left": {"X": 0.5, "Y": 1.0}, "interpolation": 0}]}}, "anchor": 0, "crop_width": {"Points": [{"co": {"X": 1.0, "Y": -1.0}, "interpolation": 2}]}, "volume": {"Points": [{"co": {"X": 1.0, "Y": 1.0}, "interpolation": 2}]}, "crop_height": {"Points": [{"co": {"X": 1.0, "Y": -1.0}, "interpolation": 2}]}, "id": "YRSKB3LHYN", "file_id": "D42H60PHON", "has_audio": {"Points": [{"co": {"X": 1.0, "Y": -1.0}, "interpolation": 2}]}, "perspective_c1_y": {"Points": [{"co": {"X": 1.0, "Y": -1.0}, "interpolation": 2}]}, "crop_x": {"Points": [{"co": {"X": 1.0, "Y": 0.0}, "interpolation": 2}]}, "image": "C:\\Users\\Daniel\\.openshot_qt\\thumbnail\\D42H60PHON.png", "waveform": false, "shear_y": {"Points": [{"co": {"X": 1.0, "Y": 0.0}, "interpolation": 2}]}, "perspective_c2_x": {"Points": [{"co": {"X": 1.0, "Y": -1.0}, "interpolation": 2}]}, "duration": 10.23999977111816, "display": 0, "perspective_c4_x": {"Points": [{"co": {"X": 1.0, "Y": -1.0}, "interpolation": 2}]}, "perspective_c3_y": {"Points": [{"co": {"X": 1.0, "Y": -1.0}, "interpolation": 2}]}}, "type": "delete", "key": ["clips", {"id": "YRSKB3LHYN"}], "value": null, "partial": false}, {"old_values": [], "type": "insert", "key": ["clips"], "value": {"perspective_c4_y": {"Points": [{"co": {"Y": -1.0, "X": 1.0}, "interpolation": 2}]}, "crop_y": {"Points": [{"co": {"Y": 0.0, "X": 1.0}, "interpolation": 2}]}, "reader": {"pixel_format": 0, "audio_timebase": {"den": 48000, "num": 1}, "has_audio": true, "channel_layout": 3, "type": "FFmpegReader", "path": "C:\\Users\\Daniel\\Downloads\\VID_20171128_201205317.mp4", "display_ratio": {"den": 9, "num": 16}, "interlaced_frame": false, "fps": {"den": 51651, "num": 1550000}, "has_video": true, "has_single_image": false, "audio_bit_rate": 128370, "pixel_ratio": {"den": 1, "num": 1}, "video_stream_index": 0, "channels": 2, "video_length": "310", "video_bit_rate": 10532809, "vcodec": "h264", "acodec": "aac", "audio_stream_index": 1, "video_timebase": {"den": 90000, "num": 1}, "file_size": "13579425", "height": 720, "top_field_first": true, "sample_rate": 48000, "width": 1280, "duration": 10.23999977111816}, "location_y": {"Points": [{"co": {"Y": 0.0, "X": 1.0}, "interpolation": 2}]}, "title": "VID_20171128_201205317.mp4", "scale": 1, "channel_mapping": {"Points": [{"co": {"Y": -1.0, "X": 1.0}, "interpolation": 2}]}, "perspective_c1_x": {"Points": [{"co": {"Y": -1.0, "X": 1.0}, "interpolation": 2}]}, "scale_y": {"Points": [{"co": {"Y": 1.0, "X": 1.0}, "interpolation": 2}]}, "time": {"Points": [{"co": {"Y": 1.0, "X": 1.0}, "interpolation": 2}]}, "perspective_c2_y": {"Points": [{"co": {"Y": -1.0, "X": 1.0}, "interpolation": 2}]}, "alpha": {"Points": [{"co": {"Y": 1.0, "X": 1.0}, "interpolation": 2}]}, "position": 0, "perspective_c3_x": {"Points": [{"co": {"Y": -1.0, "X": 1.0}, "interpolation": 2}]}, "shear_y": {"Points": [{"co": {"Y": 0.0, "X": 1.0}, "interpolation": 2}]}, "end": 1.9660703225806453, "channel_filter": {"Points": [{"co": {"Y": -1.0, "X": 1.0}, "interpolation": 2}]}, "gravity": 4, "volume": {"Points": [{"co": {"Y": 1.0, "X": 1.0}, "interpolation": 2}]}, "has_video": {"Points": [{"co": {"Y": -1.0, "X": 1.0}, "interpolation": 2}]}, "effects": [], "location_x": {"Points": [{"co": {"Y": 0.0, "X": 1.0}, "interpolation": 2}]}, "id": "W4QOTCRXQT", "scale_x": {"Points": [{"co": {"Y": 1.0, "X": 1.0}, "interpolation": 2}]}, "layer": 3, "start": 0, "wave_color": {"red": {"Points": [{"handle_right": {"Y": 0.0, "X": 0.5}, "co": {"Y": 0.0, "X": 1.0}, "handle_type": 0, "handle_left": {"Y": 1.0, "X": 0.5}, "interpolation": 0}]}, "alpha": {"Points": [{"handle_right": {"Y": 0.0, "X": 0.5}, "co": {"Y": 255.0, "X": 1.0}, "handle_type": 0, "handle_left": {"Y": 1.0, "X": 0.5}, "interpolation": 0}]}, "green": {"Points": [{"handle_right": {"Y": 0.0, "X": 0.5}, "co": {"Y": 123.0, "X": 1.0}, "handle_type": 0, "handle_left": {"Y": 1.0, "X": 0.5}, "interpolation": 0}]}, "blue": {"Points": [{"handle_right": {"Y": 0.0, "X": 0.5}, "co": {"Y": 255.0, "X": 1.0}, "handle_type": 0, "handle_left": {"Y": 1.0, "X": 0.5}, "interpolation": 0}]}}, "anchor": 0, "crop_width": {"Points": [{"co": {"Y": -1.0, "X": 1.0}, "interpolation": 2}]}, "shear_x": {"Points": [{"co": {"Y": 0.0, "X": 1.0}, "interpolation": 2}]}, "crop_height": {"Points": [{"co": {"Y": -1.0, "X": 1.0}, "interpolation": 2}]}, "rotation": {"Points": [{"co": {"Y": 0.0, "X": 1.0}, "interpolation": 2}]}, "file_id": "D42H60PHON", "has_audio": {"Points": [{"co": {"Y": -1.0, "X": 1.0}, "interpolation": 2}]}, "crop_x": {"Points": [{"co": {"Y": 0.0, "X": 1.0}, "interpolation": 2}]}, "image": "C:\\Users\\Daniel\\.openshot_qt\\thumbnail\\D42H60PHON.png", "waveform": false, "perspective_c1_y": {"Points": [{"co": {"Y": -1.0, "X": 1.0}, "interpolation": 2}]}, "perspective_c2_x": {"Points": [{"co": {"Y": -1.0, "X": 1.0}, "interpolation": 2}]}, "perspective_c3_y": {"Points": [{"co": {"Y": -1.0, "X": 1.0}, "interpolation": 2}]}, "display": 0, "perspective_c4_x": {"Points": [{"co": {"Y": -1.0, "X": 1.0}, "interpolation": 2}]}, "duration": 10.23999977111816}, "partial": false}, {"old_values": {"perspective_c4_y": {"Points": [{"co": {"X": 1.0, "Y": -1.0}, "interpolation": 2}]}, "crop_y": {"Points": [{"co": {"X": 1.0, "Y": 0.0}, "interpolation": 2}]}, "reader": {"pixel_format": 0, "audio_timebase": {"den": 48000, "num": 1}, "has_audio": true, "channel_layout": 3, "type": "FFmpegReader", "path": "C:/Users/Daniel/Downloads/VID_20171128_201205317.mp4", "display_ratio": {"den": 9, "num": 16}, "interlaced_frame": false, "fps": {"den": 51651, "num": 1550000}, "has_video": true, "has_single_image": false, "audio_bit_rate": 128370, "pixel_ratio": {"den": 1, "num": 1}, "video_stream_index": 0, "channels": 2, "video_length": "310", "video_bit_rate": 10532809, "vcodec": "h264", "acodec": "aac", "audio_stream_index": 1, "video_timebase": {"den": 90000, "num": 1}, "file_size": "13579425", "height": 720, "top_field_first": true, "sample_rate": 48000, "width": 1280, "duration": 10.23999977111816}, "location_y": {"Points": [{"co": {"X": 1.0, "Y": 0.0}, "interpolation": 2}]}, "waveform": false, "has_audio": {"Points": [{"co": {"X": 1.0, "Y": -1.0}, "interpolation": 2}]}, "scale": 1, "channel_mapping": {"Points": [{"co": {"X": 1.0, "Y": -1.0}, "interpolation": 2}]}, "perspective_c1_x": {"Points": [{"co": {"X": 1.0, "Y": -1.0}, "interpolation": 2}]}, "scale_y": {"Points": [{"co": {"X": 1.0, "Y": 1.0}, "interpolation": 2}]}, "time": {"Points": [{"co": {"X": 1.0, "Y": 1.0}, "interpolation": 2}]}, "perspective_c2_y": {"Points": [{"co": {"X": 1.0, "Y": -1.0}, "interpolation": 2}]}, "alpha": {"Points": [{"co": {"X": 1.0, "Y": 1.0}, "interpolation": 2}]}, "position": 10.56, "perspective_c3_x": {"Points": [{"co": {"X": 1.0, "Y": -1.0}, "interpolation": 2}]}, "shear_y": {"Points": [{"co": {"X": 1.0, "Y": 0.0}, "interpolation": 2}]}, "end": 1.9660703225806453, "channel_filter": {"Points": [{"co": {"X": 1.0, "Y": -1.0}, "interpolation": 2}]}, "gravity": 4, "has_video": {"Points": [{"co": {"X": 1.0, "Y": -1.0}, "interpolation": 2}]}, "effects": [], "layer": 4, "id": "W4QOTCRXQT", "scale_x": {"Points": [{"co": {"X": 1.0, "Y": 1.0}, "interpolation": 2}]}, "location_x": {"Points": [{"co": {"X": 1.0, "Y": 0.0}, "interpolation": 2}]}, "start": 0.0, "wave_color": {"red": {"Points": [{"handle_right": {"X": 0.5, "Y": 0.0}, "co": {"X": 1.0, "Y": 0.0}, "handle_type": 0, "handle_left": {"X": 0.5, "Y": 1.0}, "interpolation": 0}]}, "alpha": {"Points": [{"handle_right": {"X": 0.5, "Y": 0.0}, "co": {"X": 1.0, "Y": 255.0}, "handle_type": 0, "handle_left": {"X": 0.5, "Y": 1.0}, "interpolation": 0}]}, "green": {"Points": [{"handle_right": {"X": 0.5, "Y": 0.0}, "co": {"X": 1.0, "Y": 123.0}, "handle_type": 0, "handle_left": {"X": 0.5, "Y": 1.0}, "interpolation": 0}]}, "blue": {"Points": [{"handle_right": {"X": 0.5, "Y": 0.0}, "co": {"X": 1.0, "Y": 255.0}, "handle_type": 0, "handle_left": {"X": 0.5, "Y": 1.0}, "interpolation": 0}]}}, "anchor": 0, "crop_width": {"Points": [{"co": {"X": 1.0, "Y": -1.0}, "interpolation": 2}]}, "shear_x": {"Points": [{"co": {"X": 1.0, "Y": 0.0}, "interpolation": 2}]}, "crop_height": {"Points": [{"co": {"X": 1.0, "Y": -1.0}, "interpolation": 2}]}, "rotation": {"Points": [{"co": {"X": 1.0, "Y": 0.0}, "interpolation": 2}]}, "file_id": "D42H60PHON", "crop_x": {"Points": [{"co": {"X": 1.0, "Y": 0.0}, "interpolation": 2}]}, "title": "VID_20171128_201205317.mp4", "image": "C:\\Users\\Daniel\\.openshot_qt\\thumbnail\\D42H60PHON.png", "volume": {"Points": [{"co": {"X": 1.0, "Y": 1.0}, "interpolation": 2}]}, "perspective_c1_y": {"Points": [{"co": {"X": 1.0, "Y": -1.0}, "interpolation": 2}]}, "perspective_c2_x": {"Points": [{"co": {"X": 1.0, "Y": -1.0}, "interpolation": 2}]}, "duration": 10.23999977111816, "display": 0, "perspective_c4_x": {"Points": [{"co": {"X": 1.0, "Y": -1.0}, "interpolation": 2}]}, "perspective_c3_y": {"Points": [{"co": {"X": 1.0, "Y": -1.0}, "interpolation": 2}]}}, "type": "update", "key": ["clips", {"id": "W4QOTCRXQT"}], "value": {"id": "W4QOTCRXQT", "position": 0, "layer": 3, "start": 0, "image": "C:\\Users\\Daniel\\.openshot_qt\\thumbnail\\D42H60PHON.png", "end": 1.9660703225806453}, "partial": false}]}, "duration": 300}